<svg version="1.1" id="Layer_1" xmlns="http://www.w3.org/2000/svg" xmlns:xlink="http://www.w3.org/1999/xlink" x="0px" y="0px"
	 width="100%" viewBox="0 0 1024 1024" enable-background="new 0 0 1024 1024" xml:space="preserve">
<path fill="#000000" opacity="1.000000" stroke="none" 
	d="
M246.801941,514.198486 
	C252.514816,519.778320 258.051147,525.012634 264.942047,528.791870 
	C265.638367,528.010925 266.296234,527.603760 266.444397,527.058228 
	C269.579163,515.513000 277.027191,507.079651 287.364197,502.119995 
	C306.077667,493.141296 311.757385,476.359070 315.581879,458.253174 
	C319.678314,438.859680 317.739716,420.067139 310.529266,401.439209 
	C300.129852,374.572571 291.351837,347.120331 283.957123,319.257538 
	C283.033783,315.778503 281.459778,313.491852 278.232208,311.712891 
	C261.568573,302.528290 245.764832,292.077759 230.988388,280.004456 
	C224.182083,274.443237 215.687210,271.267212 208.542297,266.029449 
	C203.675919,262.462006 199.142792,258.559753 195.183548,254.028671 
	C184.411484,241.700714 185.722839,228.039215 198.719086,218.111511 
	C208.009354,211.014801 218.822784,207.080139 229.886093,203.801682 
	C240.106705,200.772964 250.496384,198.400085 261.007477,196.652344 
	C265.046448,195.980774 267.092529,194.305023 267.332642,189.959961 
	C267.999908,177.883606 270.447052,166.224533 276.504761,155.541107 
	C279.609100,150.066254 283.702057,145.526779 288.992157,142.153000 
	C300.090118,135.075241 315.263733,136.979218 324.363525,146.464127 
	C325.914368,148.080597 326.784851,149.994843 327.325195,152.141327 
	C329.924835,162.468613 332.750580,172.743668 335.098511,183.127151 
	C335.941315,186.854202 337.079681,188.262085 341.290100,188.108170 
	C379.425323,186.714050 417.554108,186.756622 455.642670,189.577454 
	C460.454315,189.933792 465.309814,189.601639 470.091797,190.512070 
	C473.323669,191.127365 474.862335,188.630829 476.662262,186.742996 
	C497.016449,165.394363 521.273987,150.433929 549.692322,142.444885 
	C628.894592,120.179291 710.626465,159.556702 742.558289,235.403229 
	C744.083008,239.024673 746.183899,240.797333 749.908020,241.838455 
	C796.131958,254.760696 841.829102,269.255096 885.907654,288.438416 
	C906.866699,297.559967 927.438416,307.453247 945.903015,321.130554 
	C955.043274,327.901154 963.671082,335.255005 968.679382,345.889709 
	C971.253052,351.354553 972.343323,356.978363 970.318787,362.836243 
	C969.526184,365.129547 969.869446,366.915192 971.327393,368.823700 
	C976.916626,376.140289 977.040894,384.698822 976.022278,393.206512 
	C975.385925,398.520691 971.821228,402.502136 967.635559,405.802246 
	C959.091614,412.538635 949.136169,416.286072 938.885132,419.357574 
	C918.548523,425.450989 897.632812,428.240967 876.578247,430.401733 
	C843.352112,433.811707 810.035034,433.790314 776.727905,433.046387 
	C748.439331,432.414490 720.181641,430.680573 692.037781,427.567993 
	C689.208923,427.255127 687.247314,428.406738 685.178040,429.831909 
	C657.909790,448.612885 627.662109,458.468353 594.609802,458.178375 
	C537.722046,457.679291 493.065002,433.367645 460.262268,387.052155 
	C458.879456,385.099762 457.561096,383.418488 455.109039,382.677429 
	C435.026947,376.608246 415.017670,370.309479 395.259705,363.239014 
	C394.513733,362.972076 393.703552,362.565765 392.296600,363.632477 
	C394.225494,369.122253 396.203644,374.863831 398.257782,380.578064 
	C405.467377,400.634033 412.299255,420.832947 421.945190,439.931030 
	C423.776886,443.557587 425.864288,444.998322 430.010773,444.831421 
	C442.000244,444.348907 453.982452,444.473145 465.744507,447.532227 
	C481.255707,451.566406 491.377838,460.584351 493.408508,477.118500 
	C493.936859,481.420166 495.629120,483.361328 500.340881,484.276062 
	C524.389771,488.944885 536.917542,505.207428 542.121216,527.968811 
	C543.250122,532.906677 545.208984,535.019958 550.300232,535.880920 
	C559.732971,537.475952 566.991089,543.191467 572.847351,550.553101 
	C584.910583,565.716858 590.044617,583.491638 591.240234,602.441772 
	C592.183594,617.393982 591.742065,632.499084 599.719299,646.043823 
	C601.494263,649.057617 602.911682,652.313599 604.930481,655.146973 
	C617.337097,672.559204 621.652710,692.655945 624.267029,713.273743 
	C627.160217,736.090027 627.680359,759.057190 628.539307,782.018311 
	C629.459167,806.605408 630.149475,831.268250 635.301880,855.486145 
	C636.933350,863.154236 639.201538,870.621338 642.381409,877.814209 
	C644.946228,883.615662 643.681335,888.023010 639.093445,890.140808 
	C634.582886,892.223083 630.548218,890.182617 627.809570,884.216431 
	C621.487915,870.444397 618.686462,855.754883 616.684998,840.865967 
	C616.160767,836.965759 615.613831,833.068542 615.099548,829.331787 
	C612.564453,828.683960 611.660156,830.413940 610.428894,831.369019 
	C604.776001,835.753845 598.470581,838.629944 591.352417,839.449158 
	C586.446228,840.013672 582.836975,837.470581 581.962036,833.213135 
	C581.128967,829.159485 583.702576,824.798157 588.465210,824.026001 
	C602.861877,821.692078 609.800171,809.544556 611.728271,795.748779 
	C613.986938,779.587952 611.574463,763.504395 611.044861,747.398804 
	C610.514282,731.264587 609.102173,715.183716 605.804443,699.328857 
	C603.312073,687.345703 599.533264,675.967285 592.620422,665.613892 
	C584.325195,653.190247 578.273743,639.718628 576.209045,624.691406 
	C575.363098,618.534302 576.046265,612.372253 575.684204,606.225159 
	C574.891968,592.772461 572.027771,579.851379 565.351257,568.004883 
	C561.699463,561.525330 557.166260,555.809570 550.116211,552.669800 
	C546.991699,551.278259 543.824951,550.591370 540.471680,552.083069 
	C519.483459,561.419678 497.105591,566.022461 474.911194,571.232300 
	C460.004059,574.731628 445.037140,577.987732 430.576965,583.151917 
	C423.481415,585.686035 416.642273,588.700623 410.692780,593.425110 
	C408.678192,595.024902 406.258636,595.680115 403.948914,596.604065 
	C386.195953,603.706238 380.745514,615.197632 386.199036,633.611145 
	C389.721375,645.504211 395.462311,656.434814 400.620758,667.615967 
	C405.871582,678.997559 410.538818,690.546814 412.190338,703.081543 
	C412.422272,704.841980 413.042786,706.275269 414.342773,707.430664 
	C424.038422,716.047913 434.538208,723.210815 447.492157,726.064941 
	C449.988129,726.614868 452.291565,726.616150 453.777130,724.386292 
	C461.111298,713.377625 460.855713,698.160645 448.771790,690.356934 
	C444.978210,687.907104 441.756531,687.414734 439.364014,692.141724 
	C438.925629,693.007874 438.148590,693.728333 437.440857,694.427979 
	C434.061066,697.769287 430.130615,698.107544 426.692902,695.394653 
	C423.389496,692.787720 422.625824,688.540710 425.151672,684.653320 
	C427.965668,680.322449 430.956482,676.116699 433.245819,671.461182 
	C439.393738,658.959167 437.457153,650.236145 426.475250,641.652039 
	C424.379486,640.013855 422.054230,638.672791 419.897247,637.108582 
	C415.687012,634.055786 414.483978,629.564209 416.805298,625.839294 
	C419.187286,622.016968 423.655212,621.044922 428.172882,623.519531 
	C430.211517,624.636230 432.451080,625.706360 433.985046,627.365662 
	C439.110840,632.910339 445.120331,633.771545 452.369995,632.788025 
	C473.022430,629.986389 493.583893,626.983337 513.014343,618.959656 
	C517.935852,616.927368 522.723389,614.568359 527.556213,612.324646 
	C532.934448,609.827759 537.570312,610.876038 539.637390,615.101318 
	C541.778259,619.477356 540.072876,623.764526 534.764648,626.548218 
	C514.781372,637.027954 493.396149,643.044312 471.156219,646.264709 
	C466.217865,646.979736 461.279907,647.760559 456.314270,648.202087 
	C453.027802,648.494202 451.551666,649.417664 452.170654,653.142395 
	C453.104828,658.764221 452.859863,664.475952 451.035858,669.933228 
	C450.198608,672.438110 451.005859,673.598755 453.163116,674.585876 
	C474.295135,684.255493 480.011383,709.403076 468.961212,730.149780 
	C463.481354,740.438171 455.468414,744.211060 444.003418,741.900879 
	C433.350281,739.754272 424.014404,734.682251 415.089325,728.727478 
	C413.575256,727.717224 412.083191,726.674011 410.633179,725.681763 
	C408.515839,726.700256 408.336853,728.712158 407.614288,730.298279 
	C402.995575,740.436951 396.161774,748.656189 386.565796,754.377991 
	C366.813751,766.155457 345.630402,757.256348 341.774628,731.210022 
	C339.973755,719.044556 339.087891,706.743713 337.768555,694.506348 
	C337.683380,693.716492 337.436432,692.944092 337.273560,692.203735 
	C335.209930,691.820251 334.449097,693.426880 333.328644,694.257446 
	C321.226929,703.228333 307.982483,700.911743 299.704315,688.293152 
	C295.916229,682.518982 293.341583,676.173279 291.795959,669.494141 
	C288.063904,653.366638 282.280548,637.958191 276.024445,622.688110 
	C270.219482,608.519287 267.713623,593.625427 266.658569,578.433533 
	C266.013031,569.138611 265.283203,559.849426 264.645935,550.553955 
	C264.509491,548.563843 263.830170,547.049805 261.999237,546.088806 
	C252.472946,541.088989 244.177139,534.432556 236.420670,527.049438 
	C235.965302,526.615906 235.342163,526.358704 234.727097,525.975891 
	C232.741867,527.947632 232.505066,530.560486 231.456635,532.756592 
	C228.025482,539.943726 222.883362,545.424194 215.716309,548.880493 
	C211.425812,550.949524 207.071365,549.602844 204.917358,545.826965 
	C202.750015,542.027710 203.642654,537.132568 207.956680,535.080200 
	C220.053146,529.325378 222.443039,510.794464 211.063431,500.228302 
	C197.772629,487.887573 183.696228,477.807343 165.402405,473.996277 
	C151.301575,471.058716 137.765823,481.779236 140.764999,498.909302 
	C144.223679,518.663879 155.093903,533.730530 171.607529,544.912415 
	C183.082275,552.682373 195.695526,558.512512 207.335861,565.973389 
	C230.544785,580.849121 248.157074,600.511597 258.341766,626.433960 
	C261.912445,635.522034 262.112152,645.317261 264.579163,654.644775 
	C272.304596,683.854065 287.654205,708.731384 307.740906,730.870544 
	C328.576630,753.835266 351.404907,774.863281 372.827515,797.265564 
	C381.033844,805.847229 391.012207,811.739929 402.464355,815.137329 
	C407.889679,816.746887 413.134399,818.883606 418.310333,821.221191 
	C427.449615,825.348755 436.885651,823.955688 446.271820,822.174744 
	C454.928009,820.532227 463.421051,818.060852 472.220642,817.134460 
	C475.389801,816.800781 478.535950,816.640930 481.664337,817.354858 
	C486.274658,818.406860 488.990387,821.610718 488.763611,825.672852 
	C488.535553,829.756836 484.904480,833.386841 480.279541,833.164917 
	C468.225250,832.586548 457.023132,836.737610 445.301880,838.618469 
	C445.301880,839.374512 445.119049,839.954590 445.328156,840.290955 
	C455.295654,856.325317 454.917328,873.439392 450.625061,890.948792 
	C449.159088,896.928833 447.620300,902.892639 446.000153,908.832642 
	C444.463013,914.468323 440.417389,917.250549 435.864014,915.982300 
	C431.206207,914.684937 429.263702,910.583679 430.450287,904.793823 
	C432.485107,894.864746 435.956757,885.300110 437.160339,875.133850 
	C439.344849,856.682434 432.021057,844.199097 414.665771,837.557129 
	C404.879761,833.811951 395.172760,829.849976 385.511139,825.792908 
	C374.847198,821.315002 366.144989,813.929199 358.408630,805.637085 
	C341.117645,787.103943 322.570526,769.828125 305.031982,751.553894 
	C284.229279,729.878662 266.094299,706.372009 255.358307,677.887024 
	C250.703384,665.536438 247.880692,652.764465 245.430084,639.800964 
	C242.569534,624.669067 233.997574,612.297729 223.970673,600.875244 
	C213.354919,588.782043 200.315536,579.979309 186.316528,572.366150 
	C174.751846,566.076843 163.066162,559.887085 153.075592,551.182922 
	C134.997696,535.432861 123.987389,515.950928 124.735779,491.471375 
	C125.440727,468.412445 145.757446,453.665253 168.452789,458.166107 
	C188.634720,462.168488 205.475159,471.930847 219.850861,486.237549 
	C228.940842,495.283936 237.664337,504.698547 246.801941,514.198486 
M699.717346,363.659119 
	C705.173889,364.256104 710.658020,364.673889 716.077576,365.510651 
	C719.932068,366.105804 722.133545,365.006500 723.924133,361.349823 
	C737.538147,333.547852 741.756897,304.422394 736.854431,273.908569 
	C724.429199,196.572342 650.744934,140.868591 569.682434,154.696381 
	C490.363739,168.226746 438.189667,242.333817 451.088409,321.491028 
	C451.725067,325.398224 453.010223,327.168549 457.047974,327.956024 
	C490.026245,334.387573 523.123291,340.099670 556.382568,344.857788 
	C579.754578,348.201355 603.127197,351.553131 626.535034,354.631348 
	C650.604614,357.796539 674.717346,360.634064 699.717346,363.659119 
M371.092499,743.395203 
	C386.033051,739.478333 396.336517,724.663818 396.107330,707.800964 
	C395.936005,695.194397 390.438721,684.291626 385.417694,673.245056 
	C379.768372,660.816345 373.490997,648.658997 369.478333,635.543640 
	C362.003326,611.111572 368.702332,595.496094 391.317719,584.698792 
	C394.769409,583.050842 398.710449,582.168762 401.771454,580.006897 
	C414.424866,571.070251 428.888519,566.707886 443.522583,562.654236 
	C466.293945,556.346375 489.751678,552.699341 512.254028,545.443054 
	C530.508972,539.556519 531.279175,543.599365 523.269836,521.705383 
	C516.933167,504.383667 498.651001,496.106934 480.916931,500.909485 
	C436.874207,512.836792 394.721130,529.636108 353.793488,549.677307 
	C343.890900,554.526306 336.416016,561.940125 330.507812,570.993835 
	C325.351807,578.894836 324.016998,587.598145 326.203705,596.840515 
	C328.262177,605.540710 332.554169,613.272095 336.555267,621.127991 
	C340.415894,628.708252 344.481323,636.290100 346.108368,644.664612 
	C350.165192,665.545715 354.086548,686.455505 355.424744,707.763550 
	C355.934174,715.875244 356.981415,724.001038 358.485077,731.988403 
	C359.868134,739.335083 363.794617,742.635986 371.092499,743.395203 
M295.555725,516.074158 
	C288.927856,520.062378 283.468079,524.996155 281.947784,533.064209 
	C280.867188,538.798767 280.078857,544.538940 280.594238,550.424988 
	C281.290894,558.381958 281.674347,566.366089 282.334686,574.326660 
	C283.603577,589.623169 285.651276,604.758972 291.782562,619.043396 
	C298.296448,634.219177 303.598114,649.798279 307.406311,665.889526 
	C308.633331,671.074402 310.413147,676.130066 313.640625,680.506104 
	C315.196625,682.615723 317.035797,684.190735 319.953979,683.573486 
	C325.337708,682.434753 334.245361,670.693176 333.495148,665.129211 
	C332.025116,654.226196 329.942322,643.502808 324.690491,633.571716 
	C319.634644,624.011047 314.470886,614.472595 310.947510,604.173523 
	C306.961609,592.522339 306.473022,580.908936 311.983521,569.669556 
	C319.090485,555.174011 329.954956,543.796021 344.220337,536.545044 
	C385.152283,515.739624 427.786652,499.127563 472.007446,486.659302 
	C478.426117,484.849548 478.888794,483.851227 476.786743,477.517365 
	C473.996552,469.110107 467.447113,464.913361 459.426392,463.419281 
	C439.209442,459.653320 419.162170,459.541595 399.487244,467.050446 
	C363.810394,480.666382 328.404968,494.802399 295.555725,516.074158 
M358.894135,349.697754 
	C340.124756,342.303436 321.847626,333.737030 302.545319,325.117676 
	C303.238708,327.925018 303.583832,329.531982 304.033020,331.109283 
	C310.418396,353.530151 317.784943,375.650238 326.106415,397.401062 
	C333.451996,416.601227 335.289795,436.079712 332.296265,456.215820 
	C331.153503,463.902740 328.900269,471.352295 326.792328,479.503510 
	C328.715393,478.762604 329.948181,478.366730 331.114197,477.826630 
	C352.884247,467.742706 375.079651,458.697906 397.618896,450.483063 
	C406.952301,447.081299 407.024475,446.990265 402.920380,437.869232 
	C392.450928,414.601715 384.569366,390.351624 376.149841,366.330231 
	C373.097351,357.621216 368.624268,351.906036 358.894135,349.697754 
M746.546692,348.864685 
	C744.266846,354.881592 741.987061,360.898499 739.719177,366.884033 
	C741.572571,368.162201 743.410828,368.402344 745.198120,368.549194 
	C770.218933,370.604431 795.216675,373.089661 820.274597,374.504333 
	C850.520264,376.211945 880.826843,376.895935 911.089172,374.599426 
	C919.783203,373.939697 928.509155,372.921967 937.340027,370.047028 
	C934.870300,367.149628 931.760864,366.286194 928.978943,365.012238 
	C874.521179,340.073578 816.738892,325.517517 759.051941,310.663574 
	C756.023010,309.883667 754.507019,310.494904 754.142761,314.049164 
	C752.953186,325.656708 750.424133,337.011322 746.546692,348.864685 
M905.036743,390.753723 
	C872.898743,393.525208 840.792236,391.851501 808.705750,389.864929 
	C783.632874,388.312622 758.602295,386.161652 733.631714,383.367950 
	C708.341614,380.538544 683.024475,377.932281 657.764282,374.858154 
	C633.829346,371.945343 609.957581,368.516998 586.049500,365.379974 
	C554.558838,361.248016 523.215759,356.175171 491.933563,350.713806 
	C477.107300,348.125427 462.300598,345.424866 447.485046,342.775085 
	C453.512390,345.174530 459.685120,346.971802 465.871735,348.719940 
	C497.914032,357.774017 530.315125,365.360748 562.864319,372.328888 
	C604.356934,381.211609 646.079895,388.812683 688.088562,394.843964 
	C713.286316,398.461639 738.543579,401.489471 763.885498,403.936981 
	C786.760254,406.146271 809.662170,407.982910 832.618469,408.571930 
	C855.090393,409.148560 877.600464,409.519989 900.052734,407.673065 
	C916.151733,406.348846 932.216919,404.721222 947.647278,399.490631 
	C951.119446,398.313599 954.632446,397.074463 957.525818,394.774628 
	C960.615540,392.318726 961.797791,389.062408 959.360962,385.558075 
	C957.469910,382.838501 955.913208,379.153809 951.189026,381.119446 
	C936.718750,387.140137 921.407593,389.251038 905.036743,390.753723 
M364.517365,236.234329 
	C358.981201,235.286057 353.413330,234.892105 347.678345,234.870209 
	C347.558838,235.896637 347.302429,236.576248 347.436401,237.167358 
	C352.692902,260.357971 358.770752,283.309204 367.352905,305.534363 
	C368.256409,307.874146 370.031616,308.807220 372.214172,309.306641 
	C391.487946,313.716644 410.762360,318.124176 430.044800,322.496094 
	C433.445404,323.267120 434.948792,322.295959 434.380859,318.358215 
	C431.126404,295.794983 433.348785,273.602844 439.607178,251.788177 
	C440.693085,248.002960 440.192139,246.528687 435.998535,245.909912 
	C412.506409,242.443542 389.015442,238.988098 364.517365,236.234329 
M311.729218,292.631104 
	C323.691193,296.292145 335.653076,299.953522 348.782227,302.980164 
	C347.875824,299.948944 347.358032,298.050171 346.742004,296.183838 
	C342.149170,282.269470 338.128113,268.191101 334.641022,253.961090 
	C327.158569,223.426834 321.272491,192.522278 313.348511,162.090363 
	C311.502472,155.000641 304.602234,152.115921 298.233368,155.774887 
	C296.047150,157.030884 294.200562,158.664581 292.728027,160.765350 
	C287.927582,167.613770 285.592682,175.327759 284.288727,183.490372 
	C282.136597,196.962326 283.621735,210.427490 284.400665,223.857407 
	C285.537262,243.454224 288.173615,262.890869 291.918365,282.179047 
	C292.517273,285.263947 293.954010,286.914642 296.706665,287.805878 
	C301.456268,289.343750 306.207275,290.877319 311.729218,292.631104 
M495.118927,403.383850 
	C527.299438,432.782867 565.284485,444.916718 608.513428,441.685455 
	C625.626404,440.406281 655.558472,430.852661 660.791992,424.501282 
	C601.442444,417.422821 542.992310,406.525574 484.158569,390.955597 
	C487.459717,396.499542 491.338440,399.428101 495.118927,403.383850 
M507.316895,370.345276 
	C464.836334,360.164825 422.906006,348.021942 381.058807,334.072296 
	C382.291748,340.930237 382.923584,341.777710 387.930176,343.641113 
	C407.444275,350.904144 427.162903,357.569519 447.078278,363.640594 
	C499.837280,379.723846 553.379761,392.416504 607.891357,400.997040 
	C632.708069,404.903351 657.579163,408.287140 682.572693,410.836517 
	C699.459656,412.558990 716.383423,413.751556 733.296265,415.129425 
	C753.067139,416.740112 772.887146,416.346436 792.680176,417.454224 
	C790.628418,416.912598 788.550964,416.554321 786.458862,416.410156 
	C762.218994,414.739624 738.067322,412.145142 713.985107,409.003662 
	C684.641541,405.175934 655.401428,400.646606 626.261841,395.435852 
	C586.622192,388.347473 547.214478,380.208252 507.316895,370.345276 
M862.688354,305.673981 
	C893.968750,317.962189 924.922913,330.914124 953.783142,351.085602 
	C950.993774,345.875061 947.909119,342.786652 944.485107,339.944733 
	C929.477966,327.489349 912.327087,318.593994 894.835144,310.360077 
	C849.664490,289.097076 802.339539,273.771149 754.494995,259.917542 
	C753.408691,259.602997 752.307129,258.982941 751.245300,259.952057 
	C751.519104,269.827637 751.560303,269.925049 760.383667,272.384003 
	C794.711304,281.950562 828.626831,292.782135 862.688354,305.673981 
M817.939941,300.710724 
	C799.341064,294.976562 780.759277,289.185669 762.120850,283.583160 
	C759.898682,282.915131 757.086304,280.929688 755.107483,283.132996 
	C753.195129,285.262299 754.787109,288.235321 755.126221,290.820862 
	C755.575684,294.247772 758.657776,293.995239 760.893250,294.556366 
	C808.509460,306.508179 855.883057,319.270782 902.025513,336.213928 
	C906.015930,337.679169 910.038086,339.057861 914.045532,340.476746 
	C883.671692,323.767792 851.311096,312.048645 817.939941,300.710724 
M362.428101,204.089310 
	C356.435547,204.191986 350.440674,204.228653 344.452087,204.442322 
	C342.896393,204.497833 340.692291,204.501114 340.803192,206.841019 
	C340.900726,208.899918 342.866089,208.662750 344.320740,208.643356 
	C379.794281,208.169998 415.146149,210.297943 450.425415,213.758575 
	C455.833069,214.289032 458.349426,211.671539 460.301575,206.290771 
	C427.769440,203.917801 395.603912,203.369949 362.428101,204.089310 
M253.165039,234.600281 
	C245.024399,240.508804 243.964218,246.288101 249.795197,254.514542 
	C254.267746,260.824524 260.179352,265.699921 266.463745,270.101898 
	C268.531372,271.550171 270.428864,273.504364 273.652130,273.812927 
	C272.133667,261.613556 270.736603,249.795746 269.167297,238.000854 
	C268.197998,230.715576 265.222870,229.098999 258.168549,231.837128 
	C256.635803,232.432083 255.250320,233.406555 253.165039,234.600281 
M433.970673,229.375809 
	C436.594666,229.794083 439.231506,230.145370 441.839813,230.645462 
	C446.334442,231.507248 448.842194,229.862808 449.210297,224.299728 
	C421.702240,221.313095 394.188232,219.780914 366.580383,219.773651 
	C388.757690,222.906540 410.935028,226.039444 433.970673,229.375809 
M225.698929,252.701477 
	C230.984451,262.191223 239.691498,266.923462 250.261307,270.085602 
	C240.598389,259.931000 231.617767,249.915909 237.769241,234.655212 
	C223.879837,237.308777 220.583389,242.085968 225.698929,252.701477 
M326.983856,318.433441 
	C337.559692,323.081268 347.870575,328.426239 359.518066,331.971710 
	C359.305054,328.047119 358.372925,325.805511 355.754822,324.783752 
	C340.031189,318.647278 324.461121,312.040314 307.574951,309.174011 
	C313.821564,312.143494 320.068176,315.112976 326.983856,318.433441 
M212.508163,228.366119 
	C210.627396,229.723038 208.568497,230.892822 206.904160,232.477112 
	C203.761002,235.469086 203.229309,238.837967 206.610504,243.421326 
	C207.292358,237.039658 210.326370,232.702271 212.508163,228.366119 
z"/>
<path fill="#000000" opacity="1.000000" stroke="none" 
	d="
M471.753479,869.987793 
	C471.913116,864.332825 471.447449,859.220276 470.538055,854.128052 
	C469.973389,850.966248 470.857208,848.358826 474.412567,847.774902 
	C477.781464,847.221680 479.694000,849.009766 480.489594,852.244324 
	C483.322571,863.762207 482.577087,875.327209 480.891602,886.880432 
	C480.221283,891.475037 479.228180,896.026917 478.263184,900.573059 
	C477.036987,906.349731 474.666870,908.812012 471.277344,907.658752 
	C466.164093,905.919006 467.323242,901.822510 468.111572,898.053833 
	C470.016235,888.948486 471.941010,879.852356 471.753479,869.987793 
z"/>
</svg>