<?xml version="1.0" encoding="iso-8859-1"?>
<!-- Generator: Adobe Illustrator 19.0.0, SVG Export Plug-In . SVG Version: 6.00 Build 0)  -->
<svg version="1.1" id="Layer_1" xmlns="http://www.w3.org/2000/svg" xmlns:xlink="http://www.w3.org/1999/xlink" x="0px" y="0px"
	 viewBox="0 0 512 512" style="enable-background:new 0 0 512 512;" xml:space="preserve">
<g>
	<g>
		<g>
			
				<rect x="238.659" y="213.417" transform="matrix(-0.7071 0.7071 -0.7071 -0.7071 577.228 203.3832)" width="15.666" height="15.644"/>
			
				<rect x="260.78" y="235.566" transform="matrix(-0.7071 0.7071 -0.7071 -0.7071 630.6534 225.5515)" width="15.666" height="15.644"/>
			
				<rect x="282.912" y="257.69" transform="matrix(-0.7071 0.7071 -0.7071 -0.7071 684.0787 247.6704)" width="15.666" height="15.644"/>
			<path d="M91.597,320.825l99.578,99.578l154.893-154.892l-99.579-99.579L91.597,320.825z M191.175,398.248l-77.423-77.423
				l88.485-88.486l77.424,77.424L191.175,398.248z M323.913,265.512l-33.172,33.172l-77.424-77.424l33.172-33.172L323.913,265.512z"
				/>
			<path d="M75.01,337.426l18.47,18.471c-2.442-0.254-4.91-0.391-7.399-0.391c-18.808,0-36.49,7.325-49.789,20.623
				C10.586,401.835,1.763,492.413,0.841,502.655L0,512l9.345-0.841c10.244-0.921,100.821-9.746,126.526-35.45
				c13.299-13.299,20.624-30.981,20.624-49.789c0-2.49-0.137-4.957-0.391-7.401l18.471,18.472l11.077-11.078l-99.564-99.564
				L75.01,337.426z M102.682,387.207c2.954-2.953,6.879-4.58,11.055-4.58c4.176,0,8.102,1.627,11.054,4.581
				c2.953,2.953,4.579,6.879,4.579,11.054c0,4.176-1.626,8.102-4.579,11.054v0.001c-2.953,2.953-6.879,4.58-11.054,4.58
				c-4.177,0-8.102-1.627-11.055-4.581c-2.953-2.953-4.579-6.879-4.579-11.054S99.73,390.162,102.682,387.207z M91.605,420.395
				c5.911,5.913,13.772,9.169,22.133,9.169c8.361,0,16.221-3.257,22.133-9.168c1.499-1.499,2.826-3.124,3.973-4.85
				c0.646,3.384,0.984,6.854,0.984,10.374c0,14.623-5.695,28.371-16.035,38.71c-16.484,16.484-76.22,26.366-107.333,29.94
				c1.105-9.463,3.148-24.929,6.306-41.418c6.469-33.772,14.852-57.191,23.604-65.943c10.34-10.34,24.088-16.036,38.712-16.036
				c3.521,0,6.989,0.338,10.373,0.984c-1.725,1.148-3.351,2.473-4.85,3.973c-5.913,5.911-9.168,13.773-9.168,22.133
				C82.436,406.621,85.693,414.484,91.605,420.395z"/>
			<path d="M263.075,171.471l11.078,11.078l71.899-71.899l55.297,55.297l-71.899,71.899l11.078,11.078l116.165-116.166
				L379.24,55.305L263.075,171.471z M434.539,132.759l-22.111,22.11l-55.296-55.298l22.11-22.11L434.539,132.759z"/>
			<polygon points="500.922,0 458.613,42.309 408.832,47.839 395.827,60.844 406.905,71.923 416.025,62.804 453.344,58.656 
				449.196,95.976 440.077,105.095 451.156,116.173 464.162,103.168 469.692,53.387 512,11.078 			"/>
			<rect x="421.178" y="75.139" transform="matrix(0.707 -0.7072 0.7072 0.707 67.0258 327.7062)" width="15.666" height="15.645"/>
			
				<rect x="388.007" y="108.326" transform="matrix(0.7071 0.7071 -0.7071 0.7071 198.0725 -245.8716)" width="15.644" height="15.666"/>
		</g>
	</g>
</g>
<g>
</g>
<g>
</g>
<g>
</g>
<g>
</g>
<g>
</g>
<g>
</g>
<g>
</g>
<g>
</g>
<g>
</g>
<g>
</g>
<g>
</g>
<g>
</g>
<g>
</g>
<g>
</g>
<g>
</g>
</svg>
