<?xml version="1.0" encoding="UTF-8" standalone="no"?>
<svg
   xmlns:dc="http://purl.org/dc/elements/1.1/"
   xmlns:cc="http://creativecommons.org/ns#"
   xmlns:rdf="http://www.w3.org/1999/02/22-rdf-syntax-ns#"
   xmlns:svg="http://www.w3.org/2000/svg"
   xmlns="http://www.w3.org/2000/svg"
   id="svg4640"
   version="1.1"
   viewBox="0 0 290.68451 174.97781"
   height="174.97781mm"
   width="290.68451mm">
  <defs
     id="defs4634" />
  <metadata
     id="metadata4637">
    <rdf:RDF>
      <cc:Work
         rdf:about="">
        <dc:format>image/svg+xml</dc:format>
        <dc:type
           rdf:resource="http://purl.org/dc/dcmitype/StillImage" />
        <dc:title></dc:title>
      </cc:Work>
    </rdf:RDF>
  </metadata>
  <g
     transform="translate(100.57811,29.596224)"
     id="layer1">
    <path
       id="path5196"
       d="m -45.915692,145.24298 c -0.0808,-0.076 -3.04933,-0.2337 -6.59664,-0.35044 -3.5473,-0.11675 -7.0398,-0.29224 -7.76111,-0.38999 -0.72131,-0.0977 -4.80397,-0.33855 -9.07258,-0.53511 -11.66441,-0.53711 -14.28913,-0.75703 -14.27481,-1.196 0.0148,-0.45465 -0.44337,0.098 8.84919,-10.67352 7.24797,-8.40155 7.28126,-8.43384 9.17222,-8.89824 1.04381,-0.25636 3.56472,-0.92531 5.60201,-1.48657 4.02993,-1.11022 14.43793,-3.91786 16.84514,-4.54411 1.12173,-0.29182 1.49931,-0.56431 1.49931,-1.082 0,-0.60675 -0.24979,-0.69244 -2.02848,-0.69585 -1.11566,-0.002 -2.62378,-0.10228 -3.35138,-0.22254 -1.26309,-0.20878 -1.32292,-0.2804 -1.32292,-1.58362 v -1.36495 l -3.79236,-0.005 c -4.18129,-0.006 -5.32248,-0.35148 -4.14514,-1.25505 0.38805,-0.29782 1.65805,-1.02594 2.82222,-1.61805 8.66048,-4.4048 20.19405,-10.370838 28.39861,-14.689948 5.335765,-2.80889 12.757328,-6.69166 16.4923616,-8.62839 6.432137,-3.33527 6.790972,-3.57501 6.790972,-4.53725 0,-0.55875 -0.153769,-1.01591 -0.341707,-1.01591 -0.187936,0 -0.256988,-0.22077 -0.153445,-0.4906 0.154217,-0.40189 -0.884424,-0.52996 -5.743709,-0.70824 -3.2625836,-0.1197 -7.8369716,-0.29642 -10.1653046,-0.3927 -2.328333,-0.0963 -10.027708,-0.33751 -17.109718,-0.53605 -7.08202,-0.19854 -16.60702,-0.51448 -21.16667,-0.70211 -4.55965,-0.18762 -8.96496,-0.34206 -9.78958,-0.34321 -1.43025,-0.002 -1.49931,-0.0508 -1.49931,-1.06043 0,-0.58208 -0.0562,-1.05833 -0.12488,-1.05833 -0.0687,0 -2.72774,1.20392 -5.90902,2.67537 -3.18129,1.47145 -6.41915,2.96337 -7.19526,3.31538 -2.12465,0.96362 -19.231618,6.11606 -19.480398,5.86728 -0.119,-0.119 -0.1457,-0.28703 -0.0593,-0.3734 0.48954,-0.48953 21.920368,-10.53415 27.124448,-12.71321 10.53754,-4.41229 16.25035,-6.62755 16.48537,-6.39252 0.12415,0.12414 -0.38864,0.85489 -1.13954,1.62388 -0.7509,0.76899 -1.27717,1.48626 -1.16949,1.59393 0.10768,0.10768 3.74861,-1.57244 8.09097,-3.73359 l 7.89519,-3.92938 6.87916,0.21309 c 3.78354,0.1172 11.56229,0.23139 17.286114,0.25375 5.723819,0.0224 13.8200686,0.16636 17.9916656,0.32 4.171597,0.15363 10.724352,0.37239 14.5616784,0.48613 l 6.976956,0.2068 1.581253,-1.45755 c 1.186846,-1.094 1.487995,-1.56991 1.207371,-1.90804 -0.570276,-0.68714 -4.549179,-2.98125 -5.170681,-2.98125 -3.179121,0 -13.1160174,-3.80515 -15.0888664,-5.778 -2.40685798,-2.40686 -0.0386,-4.88896 8.7827024,-9.20493 3.312756,-1.62081 7.028889,-3.30454 8.258065,-3.74161 2.950309,-1.04905 3.357827,-1.68465 2.827137,-4.4094 -0.223852,-1.14932 -0.451923,-2.14555 -0.506829,-2.21385 -0.05491,-0.0683 -0.462915,0.13014 -0.906692,0.44097 -1.161097,0.81327 -2.781825,0.70285 -3.908672,-0.2663 -0.875181,-0.7527 -0.957184,-1.02557 -0.874515,-2.90998 0.05017,-1.14367 0.211833,-2.27059 0.359248,-2.50427 0.147412,-0.23368 1.056884,-0.85422 2.021046,-1.37898 1.004429,-0.54668 1.75302,-1.20179 1.75302,-1.53411 0,-0.52986 -0.749706,-4.63001 -3.872741,-21.1800961 -2.266294,-12.009882 -5.319751,-27.7087379 -5.472123,-28.1340269 -0.0869,-0.242535 -0.485458,-0.440972 -0.885691,-0.440972 -1.1732014,0 -1.3077154,-1.061728 -0.233638,-1.844139 0.548496,-0.399549 0.939193,-1.023097 0.939193,-1.498931 0,-0.969257 0.586374,-1.243041 2.662273,-1.243041 1.156571,0 1.636392,0.168454 1.903981,0.668449 0.196758,0.367647 0.837342,0.835639 1.423521,1.039982 1.244498,0.433834 1.463231,1.645656 0.360225,1.995735 -1.039315,0.329866 -1.246392,-1.084327 2.699054,18.4326389 0.81522,4.032655 1.037272,4.674305 1.61763,4.674305 0.497586,0 0.645019,0.211222 0.566367,0.811414 -0.05848,0.446278 0.247657,1.261438 0.680311,1.811464 0.43265,0.550027 0.786638,1.137391 0.786638,1.305253 0,0.167863 0.238125,0.305203 0.529167,0.305203 0.291041,0 0.529166,0.238125 0.529166,0.529166 0,0.291042 -0.228755,0.529167 -0.508345,0.529167 -0.791884,0 -0.94366,0.539372 -0.592085,2.104115 0.24844,1.105718 0.208746,1.559394 -0.169534,1.937674 -0.27166,0.27166 -0.493925,0.740156 -0.493925,1.041103 0,0.479492 2.519536,13.8893671 3.005357,15.9955771 0.129839,0.56291 0.439822,0.79375 1.065872,0.79375 0.599295,0 1.01183,0.28322 1.284626,0.88195 0.349197,0.7664 0.628731,0.88194 2.133642,0.88194 1.588022,0 1.722438,0.0651 1.619067,0.78373 -0.09291,0.64593 -0.378284,0.80575 -1.623014,0.90897 -0.953351,0.079 -1.831464,0.42289 -2.38125,0.93241 -1.154508,1.06996 -1.098804,1.32198 0.275561,1.24673 0.630591,-0.0345 1.326907,-0.0467 1.547368,-0.027 0.220462,0.0196 1.172962,1.39433 2.116667,3.05481 1.643348,2.89154 1.76053,3.01127 2.77416,2.83438 4.160569,-0.72604 17.247273,-0.49821 21.413003,0.3728 1.406726,0.29413 2.436513,2.5189 1.980523,4.27876 -0.187121,0.72218 -0.447294,1.86867 -0.578168,2.54777 -0.213564,1.10818 -0.415801,1.28896 -1.973241,1.76389 -1.621896,0.49459 -1.938658,0.80408 -4.847466,4.73615 -1.711696,2.31384 -3.049161,4.26999 -2.972149,4.347 0.160344,0.16034 6.10556,-3.44386 22.385964,-13.57116 l 6.48069,-4.03135 12.745698,-0.49228 c 7.010136,-0.27076 14.095077,-0.5549 15.744307,-0.63141 2.51896,-0.11686 3.11147,-0.0375 3.70417,0.49595 0.46496,0.41851 2.20142,0.89004 5.0923,1.38279 2.41271,0.41125 4.47646,0.79462 4.58611,0.85192 1.74177,0.91026 9.1952,5.67995 9.1952,5.88431 0,0.1533 -6.57848,0.18415 -14.61884,0.0686 l -14.618845,-0.21018 -5.048518,3.30714 c -2.776686,1.81893 -8.843568,5.81274 -13.48196,8.87513 l -8.433442,5.56798 h -2.096872 c -1.741777,0 -2.417794,0.19416 -3.991969,1.14653 -1.042304,0.63059 -1.899599,1.23253 -1.905103,1.33766 -0.0055,0.10512 0.705118,0.89297 1.579157,1.75077 l 1.589158,1.55964 1.007173,-0.59495 c 0.553946,-0.32722 1.096589,-0.50553 1.205872,-0.39625 0.109287,0.10929 1.123749,-0.42319 2.254363,-1.18327 l 2.055661,-1.38197 9.877777,-0.42484 c 10.067135,-0.43298 13.88297,-0.59375 43.038888,-1.81343 26.51619,-1.10924 27.47438,-1.1349 28.03181,-0.75075 0.44281,0.30517 0.42276,0.45708 -0.14288,1.0821 -0.3619,0.3999 -0.96774,0.72709 -1.34631,0.72709 -0.37857,0 -1.30647,0.48959 -2.062,1.08798 -1.17115,0.92757 -1.37368,1.2887 -1.37368,2.44944 0,1.00698 -0.20414,1.50445 -0.78405,1.91063 l -0.78405,0.54917 h 0.97151 c 0.53433,0 1.06169,0.23499 1.1719,0.5222 0.11021,0.2872 1.05017,0.79006 2.08881,1.11747 1.31495,0.4145 1.9203,0.7988 1.9934,1.2655 0.10036,0.64073 0.53441,0.66875 9.85804,0.63632 l 9.75305,-0.0339 8.15042,7.12743 c 4.48273,3.92008 8.14336,7.37744 8.13474,7.68302 -0.009,0.30557 -1.15956,1.44673 -2.55764,2.53589 -1.39808,1.08916 -4.84383,3.85816 -7.65724,6.15332 -2.8134,2.29516 -5.95489,4.856828 -6.98109,5.692608 -1.0262,0.83578 -2.10477,1.51961 -2.39685,1.51961 -0.29207,0 -2.69733,-1.94469 -5.34503,-4.321528 -2.64769,-2.37684 -6.49036,-5.80729 -8.53926,-7.62322 -2.0489,-1.81592 -3.83319,-3.40342 -3.96509,-3.52777 -0.1319,-0.12435 0.14181,-3.00422 0.60826,-6.39971 0.46644,-3.39548 0.85217,-6.36199 0.85718,-6.59223 0.005,-0.23024 -0.50614,-0.46836 -1.13588,-0.52916 -0.9632,-0.093 -1.17356,-0.27858 -1.32499,-1.16888 -0.17228,-1.01295 -0.26497,-1.06282 -2.16101,-1.16278 -1.74557,-0.092 -2.00344,-0.0187 -2.16976,0.61736 -0.25997,0.9941 -2.01027,1.00663 -2.26926,0.0163 -0.10148,-0.38805 -0.33968,-0.70555 -0.52933,-0.70555 -0.18965,0 -1.5404,0.87312 -3.00167,1.94028 -2.46159,1.79767 -2.80024,1.94027 -4.60782,1.94027 -1.55443,0 -2.19389,0.18529 -3.14615,0.91162 l -1.19519,0.91161 -16.82978,0.31867 c -20.949663,0.39667 -43.550088,1.0011 -43.718191,1.1692 -0.239677,0.23968 1.261573,9.47956 1.594238,9.81223 0.890584,0.89058 -0.615766,2.1736 -7.230638,6.15862 -7.599359,4.57811 -4.777585,3.598 -23.206508,8.060528 l -8.106322,1.96293 -10.357114,-0.0412 -10.357114,-0.0412 -1.334872,-1.20598 c -0.734184,-0.66332 -1.58108,-1.20601 -1.881992,-1.20601 -0.300913,0 -1.118323,-0.66733 -1.8164674,-1.48295 -1.252749,-1.463548 -1.281952,-1.475608 -2.232349,-0.921288 -0.52965,0.30892 -6.07537,3.357498 -12.323823,6.774618 -8.0183836,4.38506 -11.6927266,6.21295 -12.4889456,6.21295 -0.692073,0 -2.179165,0.60625 -3.847334,1.56845 l -2.71922,1.56844 -5.78212,-0.20168 c -4.79388,-0.1672 -5.70674,-0.12174 -5.34114,0.26601 0.24254,0.25722 0.44097,0.8328 0.44097,1.27906 0,0.7273 -0.16568,0.81139 -1.59857,0.81139 -1.09552,0 -1.66247,-0.16652 -1.80163,-0.52917 -0.28479,-0.74215 -0.83313,-0.66023 -0.83313,0.12447 0,0.44898 1.68437,1.79065 5.37986,4.28527 2.95893,1.99741 5.50993,3.74628 5.6689,3.88638 0.15898,0.14011 -2.99328,4.64111 -7.00501,10.00223 l -7.29405,9.74749 h -1.66744 c -0.91709,0 -1.73359,-0.0622 -1.81443,-0.13817 z m 10.16235,-9.73961 c 3.72986,-4.94771 6.7858,-9.17914 6.79097,-9.40319 0.0127,-0.54816 -11.9878,-8.597 -12.81065,-8.59224 -0.70013,0.004 -3.89142,0.82958 -17.0182,4.40231 -7.26191,1.97647 -8.55753,2.43236 -9.29464,3.27055 -0.47109,0.53568 -3.70892,4.30771 -7.19519,8.38229 -3.48627,4.07459 -6.57914,7.68712 -6.87304,8.02786 -0.2939,0.34074 -0.42939,0.72449 -0.3011,0.85278 0.31137,0.31138 32.70359,2.16635 36.74528,2.10425 l 3.175,-0.0488 z m -4.13573,-18.34444 c 0,-0.19403 -0.16812,-0.35278 -0.3736,-0.35278 -0.20548,0 -0.27549,0.15875 -0.15557,0.35278 0.11992,0.19402 0.28803,0.35277 0.3736,0.35277 0.0856,0 0.15557,-0.15875 0.15557,-0.35277 z m 4.23333,0 c 0,-0.19403 -0.07,-0.35278 -0.15557,-0.35278 -0.0856,0 -0.25368,0.15875 -0.3736,0.35278 -0.11991,0.19402 -0.0499,0.35277 0.15557,0.35277 0.20548,0 0.3736,-0.15875 0.3736,-0.35277 z m -1.06374,-2.05431 c -0.016,-0.70864 -0.71111,-1.16451 -1.61736,-1.06075 -1.1079,0.12685 -1.53504,1.05091 -0.86113,1.86292 0.33263,0.4008 0.56488,0.3939 1.44024,-0.0428 0.57401,-0.28636 1.04122,-0.62808 1.03825,-0.75939 z m 12.35263,-1.29708 v -1.23473 h -4.70577 c -2.58818,0 -7.83889,-0.10493 -11.66826,-0.23317 l -6.96248,-0.23319 0.11478,1.20332 0.11478,1.20332 3.55078,0.0998 c 3.19386,0.0898 3.61602,0.0277 4.19982,-0.61736 0.82369,-0.91018 2.46536,-0.93273 3.08894,-0.0425 0.59715,0.85255 1.44662,0.97125 7.41671,1.0363 l 4.8507,0.0529 z m 2.28108,-0.0653 c 1.632662,-0.77856 1.57771,-1.16939 -0.16442,-1.16939 -1.27,0 -1.41111,0.0882 -1.41111,0.88195 0,1.04675 -0.0121,1.04454 1.57553,0.28744 z m 8.258587,-3.3456 c 1.867277,-1.0029 12.6025516,-6.9272 23.856162,-13.165118 11.253611,-6.23792 21.691423,-12.01661 23.195138,-12.84154 1.503716,-0.82493 2.734028,-1.65916 2.734028,-1.85384 0,-0.19467 -0.833437,0.11169 -1.852083,0.68081 -4.869028,2.72033 -12.992276,7.22918 -31.2857584,17.365338 l -19.9086706,11.03112 -19.073273,-0.36214 c -11.08809,-0.21052 -19.21358,-0.23122 -19.40841,-0.0494 -0.1962,0.18306 1.55878,0.33326 4.23334,0.36231 2.51266,0.0273 9.25159,0.15581 14.97541,0.28561 5.72382,0.1298 12.37167,0.26622 14.77301,0.30316 l 4.366055,0.0672 z m -0.626477,-0.91059 c 1.722949,-0.92163 3.134198,-1.77015 3.13611,-1.8856 0.0018,-0.11545 -3.879942,-0.32071 -8.626345,-0.45614 l -8.629815,-0.24624 -3.35752,1.69087 c -1.84664,0.92997 -3.36072,1.80608 -3.36463,1.94691 -0.004,0.14083 2.65196,0.30369 5.90192,0.36191 3.24997,0.0582 7.23622,0.14143 8.858342,0.18492 2.906151,0.0779 2.995147,0.0545 6.081938,-1.59663 z m -20.7805,-0.33224 c 1.8811,-0.93293 3.42891,-1.8153 3.43958,-1.96082 0.0106,-0.14552 -1.92529,-0.27297 -4.30213,-0.28322 -2.37684,-0.0103 -5.77877,-0.10506 -7.55984,-0.21068 l -3.23832,-0.19202 -3.1964,1.70997 c -1.75803,0.94049 -3.19797,1.82546 -3.19988,1.96661 -0.002,0.14114 2.89371,0.3037 6.43471,0.36124 3.54101,0.0576 6.83507,0.14974 7.32014,0.20489 0.51065,0.0581 2.32183,-0.61384 4.30214,-1.59597 z m 28.3158606,-3.87605 c 1.656906,-0.90785 3.012557,-1.78098 3.012557,-1.94027 0,-0.1593 -3.887043,-0.28963 -8.6378696,-0.28963 h -8.637873 l -3.003795,1.48973 c -1.65209,0.81935 -3.00379,1.6079 -3.00379,1.75233 0,0.25931 3.50434,0.41594 12.597855,0.56308 l 4.6603596,0.0754 z m -20.3156906,-0.40511 c 1.77327,-0.93665 3.11734,-1.80977 2.98683,-1.94028 -0.13051,-0.13051 -3.54775,-0.23729 -7.59387,-0.23729 h -7.35659 l -3.25614,1.67569 -3.25615,1.6757 5.64445,0.19003 c 3.10444,0.10452 6.5361,0.22358 7.6259,0.26458 1.76091,0.0663 2.34032,-0.115 5.20557,-1.62843 z m 43.789358,-1.47202 c 0,-0.19402 -0.227429,-0.35277 -0.505393,-0.35277 -0.602368,0 -0.730328,-0.39594 -1.285857,-3.978848 -0.4315,-2.78298 -0.789108,-3.45969 -1.468988,-2.77981 -0.332116,0.33212 0.20623,3.953148 1.01794,6.846848 0.186701,0.66557 2.242298,0.90812 2.242298,0.26458 z m 18.528188,-0.61736 c -0.135036,-0.53357 -0.376717,-1.76389 -0.537069,-2.73403 -0.653207,-3.951898 -2.549429,-13.768748 -2.687249,-13.912028 -0.21462,-0.22312 -2.788313,1.32528 -2.737076,1.64669 1.423571,8.93057 1.977111,13.647418 1.660659,14.150908 -0.305029,0.48532 -1.283762,0.62066 -5.797909,0.80177 -6.945263,0.27865 -6.665655,0.25079 -6.665655,0.66405 0,0.22543 3.070154,0.35278 8.504911,0.35278 h 8.504911 z m 10.624301,-1.51296 c 4.824116,-1.17168 9.859606,-2.383358 11.18998,-2.692608 l 2.41886,-0.56227 -0.219657,-1.45254 c -0.738742,-4.88518 -3.082287,-17.02696 -3.370936,-17.46466 -0.430343,-0.65256 -3.171166,-0.67704 -4.421685,-0.0395 -0.686474,0.34998 -1.562714,0.55407 -1.947203,0.45353 -0.49723,-0.13003 -0.699071,-0.007 -0.699071,0.42524 0,0.44367 -0.166896,0.53726 -0.617362,0.34619 -0.68775,-0.29173 -2.095372,-0.27571 -2.589152,0.0295 -0.67564,0.41756 -0.268764,0.80932 1.076643,1.03662 1.506241,0.25448 3.985019,1.85302 4.570892,2.94773 0.923914,1.72635 1.504851,4.16826 1.339867,5.63199 -0.207126,1.83761 -1.019619,3.03873 -3.006051,4.44386 -1.276995,0.9033 -1.761299,1.02831 -4.023702,1.0386 -3.62906,0.0165 -5.858178,-1.36835 -7.139365,-4.43542 -1.103019,-2.64055 -0.270869,-6.38818 1.775979,-7.99823 0.788225,-0.62002 1.147381,-1.44991 0.627486,-1.44991 -0.747967,0 -3.238701,0.91774 -3.833291,1.41243 -0.388055,0.32285 -1.459618,1.01695 -2.381249,1.54243 -2.010259,1.1462 -2.002279,1.07105 -0.791189,7.45208 0.478733,2.52237 1.134896,6.13393 1.45814,8.0257 0.478821,2.802298 0.701033,3.439578 1.199328,3.439578 0.336391,0 4.558622,-0.95865 9.382738,-2.13032 z m -45.81243338,0.21888 c 4.28319098,-2.177108 4.28318798,-2.177108 -0.632234,-2.441408 -2.38592102,-0.12829 -6.17842702,-0.23239 -8.42779102,-0.23134 l -4.0897516,0.002 -3.175,1.661528 c -3.036955,1.58929 -3.128984,1.67175 -2.116667,1.89662 0.582084,0.12931 4.435733,0.25388 8.5636656,0.27684 l 7.505337,0.0419 z M 13.026279,100.14618 C 12.60586,98.097242 12.0014,96.406502 11.982646,97.227022 c -0.01559,0.68311 0.730049,4.891168 0.921636,5.201168 0.482325,0.78042 0.537728,-0.25592 0.121997,-2.28201 z m -32.38218,0.55218 c 3.12843,-1.590498 3.230626,-1.678398 2.22099,-1.910178 -0.582083,-0.13363 -3.995208,-0.25558 -7.584721,-0.27101 l -6.52639,-0.0281 -3.26256,1.692038 c -1.79441,0.93062 -3.16857,1.78603 -3.0537,1.90091 0.11488,0.11488 3.52047,0.22566 7.56797,0.2462 l 7.35908,0.0373 3.279331,-1.66722 z m 37.251822,1.22061 c 0.329259,-0.32926 0.423334,-0.32517 0.423334,0.0185 0,0.30927 0.530419,0.40978 1.768517,0.33514 2.628036,-0.15846 2.151055,-0.81219 -0.592593,-0.81219 -1.567899,0 -2.400846,0.14699 -2.498841,0.44097 -0.18688,0.56064 0.346135,0.57109 0.899583,0.0176 z m 11.568561,-1.69763 c -0.365665,-2.756518 -0.419686,-2.818508 -2.451721,-2.813108 -2.339308,0.006 -3.40184,0.30179 -3.40184,0.94635 0,0.4252 0.403867,0.47285 2.293056,0.27054 1.553704,-0.16639 2.293055,-0.12317 2.293055,0.13404 0,0.232 -1.131665,0.41945 -2.910416,0.48207 l -2.910417,0.10246 0.122502,1.058328 c 0.159629,1.37908 0.275227,1.46302 1.049641,0.76219 0.464213,-0.42011 1.238148,-0.57363 2.73619,-0.54278 l 2.088889,0.043 -2.0946,0.30533 c -3.400891,0.49575 -3.243855,1.01974 0.305604,1.01974 h 3.114615 z m 150.572388,-5.992928 9.34424,-7.58472 -1.12885,-1.12775 c -0.62086,-0.62026 -4.22447,-3.83141 -8.00801,-7.13589 l -6.87917,-6.00814 -8.99583,0.21362 c -4.94771,0.1175 -9.10558,0.3124 -9.23972,0.43311 -0.13413,0.12072 -0.65852,3.2093 -1.1653,6.86351 -0.76299,5.50171 -0.84236,6.73941 -0.46166,7.19883 1.06049,1.27979 16.59723,14.938258 16.88049,14.839768 0.17026,-0.0592 4.51447,-3.520738 9.65381,-7.692338 z M 16.782153,101.10758 c 0.361854,-0.36186 1.254393,-0.52917 2.822889,-0.52917 1.996196,0 2.277762,-0.0801 2.170659,-0.617358 -0.107181,-0.53768 -0.504938,-0.60615 -3.081927,-0.53051 -1.627374,0.0478 -3.020113,0.14809 -3.094972,0.22295 -0.17417,0.17417 0.273565,1.983248 0.490841,1.983248 0.08984,0 0.401468,-0.23812 0.69251,-0.52916 z m -6.009876,-0.73441 c -0.117775,-0.30691 -0.214133,-0.941908 -0.214133,-1.411108 0,-0.87829 -0.512096,-1.07649 -1.3729124,-0.53139 -0.403765,0.25568 -0.352506,0.50535 0.288607,1.40571 0.8157784,1.145658 1.6671434,1.497618 1.2984384,0.536788 z m 0.740388,-1.999618 c -0.08408,-0.43656 -0.152883,-0.0794 -0.152883,0.79375 0,0.873118 0.0688,1.230308 0.152883,0.79375 0.08409,-0.43656 0.08409,-1.15094 0,-1.5875 z m 9.976774,-0.17639 c -0.0152,-1.94757 -0.318854,-2.20511 -2.593968,-2.20004 -2.646542,0.006 -3.751216,0.2763 -3.751216,0.91827 0,0.36829 0.670757,0.50296 2.734028,0.54891 l 2.734027,0.0609 -2.265503,0.20369 c -1.341473,0.12062 -2.324703,0.38356 -2.410647,0.64467 -0.108088,0.32838 0.582951,0.44097 2.706476,0.44097 2.482476,0 2.850994,-0.0799 2.846803,-0.61736 z m -33.765824,-1.21733 2.9025846,-1.48191 -1.5874996,-0.25583 c -0.873125,-0.1407 -4.255456,-0.26759 -7.51629,-0.28198 l -5.928782,-0.0261 -2.44969,1.31938 c -1.34733,0.72566 -2.44968,1.43668 -2.44968,1.58004 0,0.14336 3.13531,0.30726 6.96736,0.36421 3.832048,0.057 7.010572,0.13968 7.063386,0.18385 0.05281,0.0442 1.40219,-0.58657 2.998611,-1.40162 z m 19.9784046,0.15939 2.3269574,-1.32253 -2.1166664,-0.22668 c -1.164167,-0.12468 -4.894792,-0.2474 -8.29027798,-0.27271 l -6.17361102,-0.046 -2.553836,1.33065 c -1.4046086,0.73186 -2.5555456,1.44972 -2.5576376,1.59524 -0.0021,0.14552 3.8306296,0.26458 8.5171556,0.26458 h 8.520958 z m 15.5561234,0.61697 c 0.326334,-0.60976 0.738654,-0.70556 3.036891,-0.70556 2.345249,0 2.644475,-0.0729 2.533866,-0.61736 -0.1106,-0.54439 -0.518386,-0.60528 -3.450089,-0.51513 -1.828568,0.0562 -3.386374,0.16394 -3.461795,0.23936 -0.248722,0.24872 0.332176,2.30424 0.651189,2.30424 0.171786,0 0.482258,-0.3175 0.689938,-0.70555 z m 6.583638,-0.79375 c -0.09786,-0.24254 -0.177938,-0.0441 -0.177938,0.44097 0,0.48507 0.08007,0.68351 0.177938,0.44097 0.09786,-0.24253 0.09786,-0.63941 0,-0.88194 z m 36.227429,-2.9705 c 6.901984,-4.13386 7.02117,-4.22679 6.550155,-5.10689 -0.196758,-0.36764 -0.265691,-0.81738 -0.153186,-0.99941 0.173778,-0.28119 -0.264707,-3.71989 -1.076322,-8.4408 l -0.206583,-1.20163 -7.26731,0.23438 c -3.997021,0.12891 -7.324432,0.29151 -7.39425,0.36132 -0.06981,0.0698 0.04679,0.82258 0.259119,1.6728 0.212333,0.85023 0.462717,2.10149 0.556415,2.78059 0.191682,1.38928 2.150481,12.0916 2.437419,13.31736 0.102193,0.43656 0.278702,0.79375 0.39224,0.79375 0.113538,0 2.769573,-1.53516 5.902303,-3.41147 z m -36.561936,0.67744 c -0.340025,-2.8611 -1.028619,-6.48463 -1.199773,-6.31347 -0.195506,0.1955 1.01588,7.98917 1.241771,7.98917 0.08643,0 0.06753,-0.75406 -0.042,-1.6757 z m -9.49664,0.75534 c 1.010098,-0.20202 1.062238,-0.29125 0.876109,-1.49931 -0.221216,-1.43578 -0.46912,-1.8565 -0.704906,-1.1963 -0.08662,0.24253 -0.448776,0.44097 -0.804796,0.44097 -0.919289,0 -1.763342,0.36921 -1.763342,0.77133 0,0.19765 0.448585,0.24453 1.058334,0.11061 0.639914,-0.14055 1.058333,-0.0892 1.058333,0.12993 0,0.1993 -0.82096,0.41035 -1.824355,0.469 -2.347747,0.13722 -2.814683,0.98857 -0.542195,0.98857 0.865039,0 2.056109,-0.0967 2.646818,-0.2148 z m -5.979015,-1.81367 3.052914,-1.67569 -4.586111,-0.22437 c -2.5223614,-0.1234 -6.2269834,-0.24246 -8.2324934,-0.26458 -3.64349598,-0.0402 -3.64858598,-0.039 -6.438194,1.45211 -1.535497,0.82078 -2.791813,1.61149 -2.791813,1.75714 0,0.14564 3.532188,0.31073 7.849306,0.36685 4.317117,0.0561 7.9042434,0.13854 7.9713914,0.18314 0.06715,0.0446 1.495901,-0.67297 3.175,-1.5946 z m 11.274999,0.32622 c 1.753605,0.0458 1.95272,0.0924 0.773748,0.18123 -4.118586,0.31027 -4.377669,1.16824 -0.352778,1.16824 2.022623,0 2.822204,-0.12493 2.822162,-0.44097 -3.5e-5,-0.24253 -0.23816,-1.68525 -0.529167,-3.20603 -0.29101,-1.52078 -0.529106,-2.83047 -0.529106,-2.91042 0,-0.0799 -0.15875,-0.14535 -0.352778,-0.14535 -0.194028,0 -0.352778,0.21783 -0.352778,0.48407 0,0.29197 -0.560017,0.57364 -1.411111,0.70973 -0.776111,0.1241 -1.411111,0.37254 -1.411111,0.55208 0,0.17953 0.555625,0.23626 1.234722,0.12606 0.801328,-0.13004 1.234722,-0.0603 1.234722,0.19857 0,0.23131 -0.60265,0.39893 -1.434302,0.39893 -1.505839,0 -2.799031,0.4947 -2.799031,1.07075 0,0.1872 1.071563,0.35862 2.38125,0.38093 2.205292,0.0376 2.276979,0.0621 0.970139,0.33245 -0.776111,0.16053 -2.006424,0.30102 -2.734028,0.31221 -1.144919,0.0176 -1.322916,0.13108 -1.322916,0.84347 0,1.16908 0.385081,1.40439 0.9585,0.58573 0.41734,-0.59584 0.853447,-0.6939 2.853863,-0.64168 z m 17.735673,-0.679 c -1.232397,-1.19168 -1.803841,-2.05781 -1.978367,-2.99861 -0.869033,-4.68455 3.519216,-8.14013 8.123385,-6.39685 0.648212,0.24543 0.662549,0.21433 0.176389,-0.38272 -1.322835,-1.62456 -4.766733,-2.06209 -7.272898,-0.92399 -4.941446,2.244 -4.941446,9.45896 0,11.70296 2.541259,1.15404 2.847178,0.83226 0.951491,-1.00079 z m -47.9103434,-0.17142 2.902585,-1.49433 -2.469444,-0.22574 c -1.358194,-0.12415 -4.771319,-0.24287 -7.5847216,-0.26382 l -5.115278,-0.0381 -2.810118,1.55099 c -3.409353,1.88173 -3.545073,1.83642 5.728367,1.91246 l 6.4460216,0.0529 z m 55.0054274,-0.21277 c 1.293036,-1.20613 1.467404,-1.5632 1.59348,-3.26319 0.110126,-1.48494 -0.01877,-2.16421 -0.580405,-3.05862 -1.526582,-2.43111 -4.675025,-3.26432 -6.993448,-1.85076 -4.576678,2.79043 -2.570519,9.52136 2.839106,9.52558 1.472674,0.001 1.875582,-0.17239 3.141267,-1.35301 z m -5.068397,-0.66078 c -1.779908,-1.10422 -2.201598,-3.25246 -0.95062,-4.84283 1.037262,-1.31866 2.244679,-1.72233 3.707561,-1.23954 1.546535,0.51041 2.243335,1.56092 2.243335,3.38212 0,2.63153 -2.73249,4.10714 -5.000276,2.70025 z m 1.472498,-1.15989 c 0,-0.94074 -0.117591,-1.05833 -1.058333,-1.05833 -1.278008,0 -1.412759,0.77008 -0.274281,1.5675 1.110311,0.77769 1.332614,0.69275 1.332614,-0.50917 z m 2.716671,-0.3559 c 0.372745,-0.74224 0.357212,-0.89717 -0.09994,-0.99685 -0.958878,-0.20909 -1.558396,0.24915 -1.558396,1.19116 0,1.18131 1.028002,1.06086 1.658338,-0.19431 z m -2.716671,-2.8191 c 0,-1.30982 -1.08628,-1.46498 -1.920275,-0.27428 -0.795235,1.13536 -0.693755,1.33261 0.685553,1.33261 1.136727,0 1.234722,-0.084 1.234722,-1.05833 z m 2.455418,0.72169 c 0.440866,-0.27886 0.420268,-0.43067 -0.142872,-1.05293 -0.859687,-0.94995 -1.254213,-0.91973 -1.254213,0.096 0,1.25046 0.447926,1.55725 1.397085,0.95688 z m -28.628297,1.51782 c 1.001575,-0.55263 1.823336,-1.09856 1.82613,-1.21317 0.0028,-0.11461 -3.499485,-0.31028 -7.782846,-0.43482 l -7.7879294,-0.22643 -2.257375,1.14037 c -1.241559,0.62721 -2.261366,1.25628 -2.266238,1.39794 -0.0075,0.21835 13.5437634,0.55986 15.7157034,0.39606 0.402329,-0.0303 1.55098,-0.50732 2.552555,-1.05995 z M 1.5544966,89.745202 c 1.071449,-0.52549 1.948092,-1.05614 1.948092,-1.17923 0,-0.12308 -3.28558598,-0.32172 -7.301301,-0.44142 l -7.3012996,-0.21764 -2.04731,1.12551 c -1.126021,0.61903 -2.047311,1.24762 -2.047311,1.39686 0,0.14925 3.330233,0.27135 7.4005186,0.27135 7.33096202,0 7.41882502,-0.009 9.348611,-0.95543 z m -3.015594,-3.54248 c -0.0199,-1.06123 -0.08477,-1.18335 -0.327981,-0.61736 -0.421262,0.98033 -0.421262,1.94027 0,1.94027 0.194028,0 0.34162,-0.59531 0.327981,-1.32291 z m 18.2501014,0.17639 c -0.09786,-0.24254 -0.177938,-0.0441 -0.177938,0.44097 0,0.48507 0.08007,0.6835 0.177938,0.44097 0.09786,-0.24253 0.09786,-0.63941 0,-0.88194 z m -8.6885784,-0.0941 c 0.96369,-0.48834 1.752162,-1.04396 1.752162,-1.23473 0,-0.21184 -2.05952,-0.34683 -5.291666,-0.34683 h -5.29166698 v 1.03704 c 0,0.93857 0.125614,1.05018 1.322917,1.17542 3.93626598,0.41175 5.75173498,0.25919 7.50825398,-0.6309 z m 5.7713634,0.32987 c 0.655973,-1.70944 -0.324834,-2.02991 -2.509164,-0.81985 -2.1774644,1.20625 -2.1593354,1.37787 0.145553,1.37787 1.63461,0 2.200772,-0.13367 2.363611,-0.55802 z m 13.282496,-0.23573 c 0.76455,-0.43657 1.391313,-0.91695 1.392809,-1.06753 0.0014,-0.15057 -2.418221,-0.22995 -5.377145,-0.17639 l -5.379861,0.0974 -0.111626,0.97014 -0.111626,0.97014 h 4.098678 c 3.603417,0 4.26665,-0.0959 5.488771,-0.79375 z m -31.3086954,-0.52917 c 0.102499,-0.53358 0.120544,-1.03675 0.0401,-1.11816 -0.184027,-0.18623 -3.656926,1.42574 -3.892349,1.80666 -0.09573,0.1549 0.689928,0.28164 1.745915,0.28164 1.814149,0 1.930241,-0.0535 2.106334,-0.97014 z m -71.5416116,-7.84566 c 12.13347,-5.40437 15.09061,-6.87666 16.20559,-8.0684 0.56987,-0.60911 0.84095,-1.10747 0.6024,-1.10747 -1.80685,0 -36.00513,15.11552 -36.028,15.92425 -0.0188,0.66382 12.25018,-3.64395 19.22001,-6.74838 z m 107.752051,5.5951 c 1.151799,-0.6332 2.015346,-1.27883 1.918991,-1.43473 -0.09635,-0.15591 -3.496048,-0.28346 -7.55488,-0.28346 -7.322784,0 -7.394843,0.007 -9.343418,0.9631 l -1.96372,0.96309 1.097982,0.35982 c 0.603885,0.1979 3.944878,0.41014 7.42442,0.47164 l 6.326445,0.11182 z m -18.63521,-0.18676 c 0.947889,-0.5159 1.723436,-1.07153 1.723436,-1.23472 0,-0.50734 -10.1392424,-0.36639 -10.3775474,0.14426 -0.164627,0.35278 -0.246945,0.35278 -0.411572,0 -0.126277,-0.27059 -0.910036,-0.43865 -2.028472,-0.43496 -1.36805498,0.005 -2.25497298,0.2605 -3.555795,1.02628 -1.57746,0.92863 -1.656666,1.03466 -0.881945,1.18066 0.46814,0.0882 3.766556,0.18203 7.329812,0.20845 6.3892114,0.0474 6.5024394,0.0351 8.2020834,-0.88997 z m -13.64316538,-1.71904 c 0.376633,-0.28487 1.36881998,-0.51795 2.20486098,-0.51795 1.595176,0 2.009528,-0.56573 1.017411,-1.38911 -0.401415,-0.33315 -0.898821,-0.15414 -2.46944398,0.88869 -1.08173,0.71823 -1.96678202,1.36277 -1.96678202,1.43231 0,0.27133 0.56075402,0.0801 1.21395402,-0.41394 z m 41.02306238,-1.0096 c 0.339694,-0.33969 -0.258025,-1.34709 -0.700408,-1.18047 -0.240898,0.0907 -1.668311,0.45373 -3.172026,0.80666 -1.503715,0.35293 -2.734028,0.76229 -2.734028,0.90968 0,0.70988 5.833921,0.23668 6.606462,-0.53587 z m -5.018962,-0.61995 c 4.201866,-1.11043 4.596345,-1.28459 4.708246,-2.07866 0.06717,-0.47667 0.349102,-0.99594 0.626505,-1.15391 0.381431,-0.21722 0.449182,-0.7033 0.27794,-1.99417 -0.197453,-1.48848 -0.134035,-1.7564 0.495522,-2.09332 0.901171,-0.48229 1.829287,0.30652 1.829287,1.55473 0,0.45858 0.15482,1.24099 0.344046,1.73869 0.307019,0.80752 0.536995,0.90491 2.136839,0.90491 1.942853,0 4.927448,-0.63258 4.927448,-1.04436 0,-0.14027 -0.953516,-0.54374 -2.118924,-0.8966 -1.165409,-0.35286 -2.053421,-0.70706 -1.973358,-0.78713 0.136056,-0.13605 0.798008,0.0294 3.65131,0.91277 0.63059,0.19523 1.146527,0.28582 1.146527,0.20131 0,-0.0845 -1.520786,-1.91285 -3.379522,-4.06298 -1.858741,-2.15013 -3.30702,-3.98184 -3.218399,-4.07046 0.08862,-0.0886 0.993038,0.83799 2.009821,2.05913 2.174448,2.61149 4.900714,5.57165 5.131403,5.57165 0.08924,0 0.187194,-0.75406 0.217674,-1.67569 l 0.05542,-1.6757 0.209159,1.76389 c 0.115041,0.97014 0.367912,1.76389 0.561939,1.76389 0.55396,0 9.636249,-4.72448 9.898729,-5.14918 0.129226,-0.20909 -0.04303,-0.99663 -0.382799,-1.7501 -0.496693,-1.10147 -0.936575,-1.48483 -2.244622,-1.95619 -2.608813,-0.94011 -5.486407,-2.07179 -11.401566,-4.48395 l -5.541373,-2.25973 -2.592017,1.17539 c -3.129069,1.41893 -6.729208,2.23069 -11.110115,2.5051 l -3.265428,0.20454 0.950359,1.24598 0.950362,1.24599 -1.611676,1.43608 c -0.886421,0.78984 -1.722666,1.79962 -1.858327,2.24395 -0.135661,0.44434 -1.041291,1.43602 -2.012509,2.20372 l -1.765857,1.39583 -1.557274,-1.27607 c -1.203657,-0.98631 -1.557274,-1.51342 -1.557274,-2.32131 0,-0.57488 -0.125526,-0.99232 -0.278945,-0.92764 -0.515602,0.21736 -5.718277,5.83667 -5.718277,6.17621 0,0.18467 0.447512,0.76451 0.994473,1.28853 0.970153,0.92947 1.022431,0.93882 2.137862,0.38237 1.387947,-0.6924 3.562512,-1.01737 4.773672,-0.71339 1.139388,0.28597 1.631107,1.22032 1.777901,3.37828 0.06433,0.94564 0.22848,1.8998 0.364786,2.12035 0.171383,0.2773 1.570666,0.356 4.536373,0.25511 3.439086,-0.11698 5.196939,-0.38594 8.874654,-1.35786 z m -8.397352,-0.52526 c -1.126046,-0.69585 -1.96983,-1.34272 -1.875074,-1.43747 0.164853,-0.16485 4.451593,2.33434 4.451593,2.59531 0,0.31932 -0.682353,0.0127 -2.576519,-1.15784 z m 2.794634,-0.53008 c -1.026177,-3.66494 -1.255719,-4.67415 -1.0988,-4.83107 0.191699,-0.19171 0.280197,0.0644 1.240374,3.58995 0.41426,1.52105 0.670944,2.8478 0.57041,2.94833 -0.100531,0.10054 -0.420928,-0.66771 -0.711984,-1.70721 z m 2.031962,-3.4775 c 0,-2.23132 0.05728,-3.14413 0.127289,-2.02847 0.07001,1.11566 0.07001,2.94128 0,4.05694 -0.07001,1.11566 -0.127289,0.20285 -0.127289,-2.02847 z m -3.947541,1.7635 c -0.428385,-1.03081 -0.701943,-1.95113 -0.607907,-2.04517 0.233899,-0.23389 1.651155,3.12626 1.504354,3.56666 -0.06466,0.19399 -0.468062,-0.49068 -0.896447,-1.52149 z m -2.08606,-4.94639 c -0.408037,-0.9658 -0.618363,-1.756 -0.467388,-1.756 0.313933,0 1.580092,3.14119 1.356346,3.36494 -0.08089,0.0809 -0.480917,-0.64314 -0.888958,-1.60894 z m -21.9261894,7.88365 c -0.415869,-0.71515 -0.516294,-0.48625 -0.175871,0.40088 0.120982,0.31528 0.294284,0.49892 0.385114,0.40809 0.09083,-0.0908 -0.0032,-0.45487 -0.209243,-0.80897 z m 9.1291584,0.30868 c 0,-0.34925 -0.18675,-0.82175 -0.414997,-1.04999 -0.318146,-0.31815 -0.263761,-0.58212 0.23302,-1.13106 0.752179,-0.83114 0.765038,-0.81357 -0.964551,-1.31811 l -1.322916,-0.38591 v 1.3961 c 0,1.28474 -0.105509,1.43795 -1.3229174,1.92106 -2.832625,1.12406 -2.818948,1.15454 0.5291674,1.17904 2.915994,0.0213 3.263194,-0.0437 3.263194,-0.61113 z m 7.408333,0.10584 c 0,-0.29104 -0.153769,-0.52917 -0.341707,-0.52917 -0.187936,0 -0.250328,0.23813 -0.138646,0.52917 0.111686,0.29104 0.265451,0.52916 0.341708,0.52916 0.07625,0 0.138645,-0.23812 0.138645,-0.52916 z m 21.389018,-0.61736 c -0.116995,-0.43657 -0.214887,-1.07157 -0.217537,-1.41112 -0.0026,-0.33954 -0.163565,-0.61736 -0.357593,-0.61736 -0.390299,0 -0.490922,2.21371 -0.117591,2.58704 0.50728,0.50728 0.894648,0.19493 0.692721,-0.55856 z m 2.007877,0.52916 c 0.08536,-0.14552 0.07672,-0.78052 -0.01923,-1.41111 -0.125769,-0.82671 -0.360066,-1.14653 -0.839939,-1.14653 -0.54125,0 -0.665515,0.26349 -0.665515,1.41111 0,1.16163 0.121062,1.41112 0.684734,1.41112 0.376604,0 0.754578,-0.11907 0.839939,-0.26459 z M 6.5219676,79.599392 c 0.63737,-0.48208 0.581734,-0.51872 -0.803448,-0.52916 -1.180599,-0.009 -1.446258,0.0982 -1.285173,0.51794 0.258357,0.67326 1.206592,0.67836 2.088621,0.0112 z m 3.4906404,-0.5139 c 0.0873,-0.14125 0.06849,-0.60187 -0.04179,-1.0236 -0.152481,-0.58308 -0.465318,-0.76548 -1.305899,-0.76137 -1.009861,0.005 -2.716367,0.68212 -1.750776,0.69475 0.227118,0.003 0.514964,0.4699 0.639657,1.03761 0.212757,0.96869 0.290509,1.00997 1.263399,0.67082 0.570181,-0.19876 1.108114,-0.47696 1.195412,-0.61821 z m 9.496686,-0.38696 c 2.288085,-1.45105 2.137347,-2.24612 -0.453866,-2.39387 -2.166973,-0.12356 -3.486894,0.31697 -4.64579,1.55056 -0.789076,0.83993 -0.791408,0.86591 -0.123042,1.37153 1.164466,0.88091 3.349152,0.65995 5.222698,-0.52822 z m -3.465516,-0.31664 c -0.338077,-0.54701 0.856732,-1.43955 1.927077,-1.43955 1.194749,0 1.637474,0.53162 1.041132,1.25017 -0.469283,0.56546 -2.649802,0.70458 -2.968209,0.18938 z m 30.261968,1.01868 c 0.450117,-0.0123 -0.778146,-1.04712 -1.242807,-1.04712 -0.156944,0 -0.285352,0.33448 -0.285352,0.7433 0,0.53285 0.157988,0.68267 0.558021,0.52917 0.306909,-0.11778 0.743472,-0.21918 0.970138,-0.22535 z m -48.9767684,-1.04135 c -0.776111,-0.14834 -5.300486,-0.37833 -10.0541666,-0.51109 -7.775334,-0.21715 -16.171213,-0.51585 -45.147753,-1.60623 -5.2722,-0.1984 -9.11823,-0.20802 -9.30297,-0.0233 -0.53489,0.53489 2.08147,0.68728 21.81878,1.27087 10.4775,0.30981 23.01875,0.68562 27.869444,0.83515 11.9537716,0.36849 16.62067162,0.37938 14.8166656,0.0346 z m 3.792361,0.11337 c -0.24253498,-0.0979 -0.63940998,-0.0979 -0.88194498,0 -0.242534,0.0979 -0.0441,0.17794 0.440973,0.17794 0.48506898,0 0.68350598,-0.0801 0.44097198,-0.17794 z m 51.3291654,-0.51256 c 0.436562,-0.16207 0.79375,-0.43487 0.79375,-0.60623 0,-0.17135 1.196237,-1.06925 2.658303,-1.99533 1.462063,-0.92608 2.589957,-1.75213 2.50643,-1.83566 -0.08353,-0.0835 -1.478202,0.55423 -3.099276,1.41724 -1.62107,0.863 -3.423652,1.67894 -4.005735,1.81318 -1.097619,0.25314 -2.293056,1.12422 -2.293056,1.67088 0,0.3264 2.058392,0.0487 3.439584,-0.46408 z M 3.1498106,77.471512 c 0,-0.59375 -0.06461,-0.61761 -0.853091,-0.31504 -0.788246,0.30248 -0.693575,0.8442 0.147535,0.8442 0.391975,0 0.705556,-0.23518 0.705556,-0.52916 z m 86.4305524,-0.17098 c 8.052153,-0.18024 20.117147,-0.41839 26.811107,-0.52922 17.34628,-0.2872 15.30218,0.12169 21.34465,-4.26971 2.79764,-2.0332 5.20425,-3.88707 5.34803,-4.11969 0.14377,-0.23263 -0.76295,0.30038 -2.01494,1.18446 -1.252,0.88408 -3.78447,2.64756 -5.62774,3.91883 l -3.35139,2.3114 -22.75416,0.40448 c -12.514793,0.22247 -24.421043,0.47757 -26.458335,0.5669 -2.037291,0.0893 -9.379478,0.26294 -16.315971,0.3858 -8.33466,0.14762 -12.611805,0.34753 -12.611805,0.58946 0,0.25011 3.324814,0.28987 10.495139,0.12553 5.772325,-0.1323 17.083263,-0.38801 25.135415,-0.56824 z M 1.3424916,76.174082 c 1.479094,-0.8106 3.311845,-1.86168 4.072784,-2.33574 l 1.38352,-0.86192 -1.38352,-0.83746 c -1.013146,-0.61326 -1.902944,-0.83694 -3.323798,-0.83554 -1.77942198,0.002 -2.36435598,0.24289 -7.055556,2.90861 l -5.1152766,2.9067 2.6458326,0.20103 c 5.852777,0.44468 5.880749,0.44103 8.776014,-1.14568 z m 41.9533024,-0.59595 c -0.07913,-1.21867 -0.260943,-1.65753 -0.723068,-1.74529 -0.504433,-0.0958 -0.617361,0.14034 -0.617361,1.29089 0,1.82522 0.285976,2.52765 0.928652,2.28104 0.374484,-0.14371 0.488273,-0.64847 0.411777,-1.82664 z m -49.5649314,-1.19343 c 5.66868702,-3.21801 5.72445402,-3.37388 1.221772,-3.41479 l -2.729121,-0.0248 -5.1358576,2.9003 c -5.699016,3.21833 -5.755506,3.38275 -1.176712,3.4249 l 2.693078,0.0248 5.1268406,-2.91042 z m 15.680753,1.9994 c 0.6305904,-0.25525 1.1465284,-0.63094 1.1465284,-0.83487 0,-0.20393 0.230678,-0.37078 0.512614,-0.37078 0.28194,0 0.772813,-0.54832 1.090831,-1.21849 0.318019,-0.67018 0.801716,-1.40399 1.074883,-1.6307 0.653848,-0.54264 0.631789,-1.03136 -0.04655,-1.03136 -0.719861,0 -3.106667,1.23083 -3.8731514,1.99732 -0.335188,0.33519 -0.867685,0.63285 -1.183333,0.66146 -0.315648,0.0286 -1.517558,0.62643 -2.670912,1.32847 -2.017074,1.22779 -2.064142,1.28918 -1.234723,1.61069 1.017433,0.39438 3.567095,0.14269 5.183812,-0.51174 z m -28.5352196,-1.23551 c 3.20843,-1.78541 3.223416,-1.80017 3.223416,-3.175 0,-0.75969 -0.08528,-1.38125 -0.189509,-1.38125 -0.42968,0 -10.746235,5.842 -10.746415,6.08542 -10e-5,0.14552 1.0099,0.26458 2.24445,0.26458 2.04074,0 2.53747,-0.16295 5.468058,-1.79375 z m 0.501799,1.32237 c 2.401823,-1.44901 2.72615,-1.70533 2.53965,-2.00709 -0.178107,-0.28818 -3.636885,1.36657 -4.562894,2.18299 -0.552775,0.48736 1.172485,0.33736 2.023244,-0.1759 z m -12.359637,-3.01321 c 2.66789,-1.47076 4.8507,-2.79652 4.8507,-2.94615 0,-0.14962 -1.29207,-0.27204 -2.87127,-0.27204 -3.07075,0 -3.78977,0.29095 -11.41623,4.61948 l -2.11667,1.20136 2.82222,0.17638 c 1.55223,0.097 3.06035,0.1131 3.35139,0.0357 0.29104,-0.0774 2.71198,-1.344 5.37986,-2.81476 z m 6.75806,0.96964 c 2.15241,-1.1892 4.469096,-2.49889 5.148194,-2.91042 l 1.234722,-0.74824 -2.998611,-0.18563 c -1.705015,-0.10555 -3.384775,-0.0295 -3.893745,0.17639 -1.74071,0.704 -9.86459,5.27515 -9.86459,5.55062 0,0.1537 1.45363,0.27945 3.23028,0.27945 h 3.23028 z M 66.6433,73.502762 c 2.703526,-1.69775 4.922227,-3.22973 4.930446,-3.40442 0.0086,-0.18303 -1.49776,-0.21848 -3.555026,-0.0837 l -3.56998,0.23396 -4.543908,3.04459 c -2.499152,1.67452 -4.543912,3.10124 -4.543912,3.17046 0,0.0692 1.432549,0.12587 3.183442,0.12587 h 3.183442 z m 5.638147,1.42157 c 1.656947,-1.13654 1.970637,-1.52641 2.068858,-2.57125 0.06368,-0.67736 0.366091,-1.50939 0.672038,-1.84893 0.51901,-0.57602 0.475823,-0.61724 -0.644941,-0.61554 -0.903066,0.001 -2.405147,0.76722 -6.051899,3.08563 -2.667882,1.69608 -4.850694,3.22463 -4.850694,3.39676 0,0.17502 1.510301,0.22041 3.426777,0.10299 3.233204,-0.19811 3.537098,-0.28565 5.379861,-1.54966 z m -111.054279,-1.57705 c 2.85573,-1.58922 5.11283,-3.01797 5.01578,-3.175 -0.097,-0.15702 -1.5964,-0.2855 -3.3319,-0.2855 -3.43459,0 -3.98848,0.21853 -11.0904,4.37542 l -2.46945,1.44542 1.5875,0.2116 c 4.46263,0.59482 4.70846,0.53337 10.28847,-2.57194 z m 112.179463,2.14546 c 0.5747,-0.40922 0.964745,-0.8242 0.866765,-0.92218 -0.178114,-0.17812 -2.684699,1.23974 -2.684699,1.51861 0,0.3668 0.86269,0.0838 1.817934,-0.59643 z m 12.37785,-2.37373 c 2.471921,-1.70918 4.601817,-3.21501 4.733104,-3.3463 0.131286,-0.13129 -1.344556,-0.2387 -3.279656,-0.2387 h -3.518358 l -4.728951,3.00268 c -2.600925,1.65148 -4.885873,3.1596 -5.077661,3.35139 -0.229757,0.22976 0.969,0.34697 3.51421,0.34361 l 3.862917,-0.005 4.494395,-3.10759 z m 9.68816,-0.10455 c 6.111209,-4.04814 6.088009,-3.93849 0.79732,-3.7694 l -4.396542,0.14051 -4.674306,3.27323 c -2.570868,1.80027 -4.674305,3.36619 -4.674305,3.47982 0,0.11363 1.939332,0.10231 4.309628,-0.0251 l 4.309632,-0.23173 4.328573,-2.8673 z m -142.796393,0.20091 c 2.73531,-1.48689 5.05231,-2.8313 5.1489,-2.98758 0.0966,-0.15628 -0.88077,-0.39728 -2.1719,-0.53555 -2.59567,-0.27797 -1.73627,-0.61167 -10.3322,4.01184 -3.28941,1.76928 -3.24674,2.0116 0.37724,2.14238 1.88899,0.0682 2.29165,-0.0837 6.97796,-2.63109 z m 152.803592,-0.36145 c 6.3438,-4.38338 6.28967,-4.14991 0.89458,-3.85848 l -4.54899,0.24573 -4.44684,3.02593 c -2.445759,1.66426 -4.59765,3.1589 -4.781977,3.32142 -0.184326,0.16252 1.652316,0.29549 4.081424,0.29549 h 4.416563 z m 4.52667,2.67123 c 1.91129,-0.006 2.12373,-0.1094 6.56135,-3.19736 4.58776,-3.19244 5.63678,-4.16781 4.01598,-3.73404 -0.46254,0.12379 -2.58723,0.22743 -4.72153,0.23032 l -3.88056,0.005 -4.66169,3.26275 c -2.56393,1.79452 -4.66737,3.40512 -4.6743,3.57911 -0.007,0.17921 1.15744,0.21745 2.68644,0.0882 1.48448,-0.12549 3.58792,-0.23089 4.67431,-0.23423 z m -165.108822,-2.15964 c 2.2554,-1.19115 4.65636,-2.50084 5.33546,-2.91042 l 1.23472,-0.74469 -2.82222,-0.19606 -2.82222,-0.19607 -5.89672,2.80731 c -3.24319,1.54402 -5.81351,2.94193 -5.71182,3.10648 0.10169,0.16454 1.62426,0.29917 3.38348,0.29917 h 3.19858 z m 177.055542,1.83666 c 0.91948,-0.26371 8.38986,-5.17673 9.76644,-6.42307 0.18888,-0.17101 -1.66339,-0.30343 -4.24455,-0.30343 h -4.5797 l -4.83947,3.36784 c -2.66171,1.8523 -4.83948,3.4398 -4.83948,3.52777 0,0.30523 7.59548,0.1582 8.73676,-0.16911 z m 14.73272,-3.28691 c 2.60239,-1.79476 4.73638,-3.39556 4.74219,-3.55733 0.006,-0.16177 -1.85476,-0.24114 -4.13458,-0.17638 l -4.14514,0.11773 -4.40973,3.12523 c -2.42534,1.71888 -4.56053,3.2667 -4.74486,3.43959 -0.19737,0.18513 1.36993,0.31435 3.81268,0.31435 h 4.14781 z m 1.45652,2.56245 c 0.23362,-0.003 0.3291,-0.30633 0.22344,-0.71037 -0.10148,-0.38806 -0.28505,-0.70027 -0.40794,-0.69382 -0.34258,0.018 -1.81094,1.30337 -1.81094,1.58526 0,0.13705 0.35719,0.15346 0.79375,0.0365 0.43656,-0.117 0.97732,-0.21489 1.20169,-0.21754 z m 3.41112,-1.97529 c 1.18361,-0.88973 2.43338,-2.08035 2.77726,-2.64583 0.39752,-0.65367 0.91909,-1.02814 1.432,-1.02814 0.92992,0 3.43696,-1.93351 3.43696,-2.6507 0,-1.16449 -0.972,-0.69601 -5.45882,2.63105 -3.92248,2.90859 -4.77174,3.69611 -4.77174,4.42483 0,0.48757 0.0973,0.88649 0.21617,0.88649 0.11889,0 1.18457,-0.72796 2.36817,-1.6177 z m -152.580076,-0.4064 c 1.1749396,-0.68856 1.4689876,-1.00023 1.024449,-1.08584 -0.72167,-0.13898 -2.773913,0.96917 -2.988814,1.61387 -0.213297,0.63989 0.127998,0.54815 1.964365,-0.52803 z m 92.65171,-1.89436 c 0.208069,-0.19554 0.168205,-0.31496 -0.105141,-0.31496 -0.650011,0 -4.286942,2.39979 -4.286942,2.82869 0,0.32409 3.510111,-1.68486 4.392083,-2.51373 z m 71.807916,2.64568 c 0,-0.29197 -0.685,-0.45708 -0.84205,-0.20296 -0.10189,0.16485 0.0459,0.29973 0.3284,0.29973 0.2825,0 0.51365,-0.0436 0.51365,-0.0968 z M 8.7362756,71.845202 c -0.06513,-0.0556 -0.75341,-0.20505 -1.529521,-0.33222 l -1.411111,-0.23122 0.826509,0.70847 c 0.654692,0.56118 0.972651,0.63025 1.529521,0.33222 0.386655,-0.20693 0.649725,-0.42169 0.584602,-0.47725 z m 14.4583674,-0.75126 c 0.811037,-0.69422 1.474612,-1.4923 1.474612,-1.77352 0,-0.28122 0.74,-1.20054 1.644448,-2.04294 l 1.644449,-1.53162 -0.746037,-1.04772 c -0.410319,-0.57624 -1.013343,-1.26955 -1.340054,-1.5407 -0.520294,-0.43181 -0.659024,-0.39508 -1.117829,0.29591 -0.345193,0.5199 -0.878523,0.78891 -1.564023,0.78891 -0.706003,0 -1.598916,0.47111 -2.77919,1.46634 -1.428316,1.20436 -1.738986,1.67189 -1.738986,2.61697 0,2.06449 0.767122,3.03441 1.234722,1.56113 0.123165,-0.38805 0.530736,-0.70555 0.905718,-0.70555 0.804933,0 0.911292,0.63963 0.15464,0.92998 -0.289927,0.11126 -0.439307,0.3444 -0.331957,0.51809 0.10735,0.1737 0.0025,0.31582 -0.233091,0.31582 -0.265765,0 -0.185988,0.26772 0.210245,0.70555 0.351187,0.38806 0.74409,0.70556 0.873122,0.70556 0.129032,0 0.898175,-0.568 1.709211,-1.26221 z m -0.994833,-3.84066 c 0,-0.55022 1.337539,-1.4383 1.668205,-1.10763 0.108169,0.10817 -0.05416,0.29292 -0.360715,0.41056 -0.306561,0.11763 -0.471047,0.43887 -0.365527,0.71386 0.116512,0.30362 -0.03078,0.49997 -0.375052,0.49997 -0.311803,0 -0.566911,-0.23254 -0.566911,-0.51676 z m 124.70694,4.75009 c 0.11992,-0.19403 -0.10884,-0.35278 -0.50835,-0.35278 -0.3995,0 -0.72637,0.15875 -0.72637,0.35278 0,0.19403 0.22875,0.35278 0.50834,0.35278 0.27959,0 0.60646,-0.15875 0.72638,-0.35278 z m 6.52639,-0.35278 c 0,-0.19402 -0.14938,-0.35277 -0.33196,-0.35277 -0.18258,0 -0.43007,0.15875 -0.54999,0.35277 -0.11991,0.19403 0.0295,0.35278 0.33196,0.35278 0.30249,0 0.54999,-0.15875 0.54999,-0.35278 z m -74.259721,-1.19765 c 0.668066,-0.5149 0.623884,-0.54439 -0.831494,-0.55502 -1.259166,-0.009 -1.498335,0.0897 -1.322916,0.54681 0.117774,0.3069 0.214132,0.70936 0.214132,0.89435 0,0.3686 0.766498,0.0185 1.940278,-0.88614 z m 73.201391,0.53034 c 0,-0.17299 -0.38213,-0.41044 -0.84918,-0.52766 -0.46704,-0.11722 -1.10204,-0.31016 -1.41111,-0.42876 -0.30906,-0.1186 -0.56194,-0.0679 -0.56194,0.11266 0,0.18057 0.59532,0.49499 1.32292,0.69872 0.7276,0.20373 1.3626,0.39048 1.41111,0.415 0.0485,0.0245 0.0882,-0.097 0.0882,-0.26996 z M 14.982372,70.568792 c 0.384292,-0.6218 -0.02081,-0.70898 -0.745814,-0.16049 -0.596854,0.45154 -0.607014,0.51567 -0.08326,0.52552 0.328098,0.006 0.701181,-0.15809 0.829077,-0.36503 z m 132.982708,0.0235 c 0.51818,-0.22267 0.21369,-0.30977 -1.14652,-0.32798 -1.01865,-0.0136 -1.85209,0.13395 -1.85209,0.32798 0,0.42449 2.01077,0.42449 2.99861,0 z M 12.923868,69.598052 c 0.930173,-0.54682 2.874899,-1.68419 4.321619,-2.5275 3.177636,-1.85228 2.946446,-2.06136 -2.319732,-2.09794 l -3.569889,-0.0248 -4.1030274,2.33415 c -2.256667,1.28378 -4.103028,2.46799 -4.103028,2.63157 0,0.16357 1.309687,0.35089 2.910416,0.41626 1.60073,0.0654 3.419369,0.15116 4.0414194,0.19065 0.70854,0.045 1.762728,-0.29956 2.822222,-0.9224 z m -10.7549274,-0.01 c 0.636492,-0.35815 2.665384,-1.50766 4.508648,-2.55445 l 3.3513884,-1.90326 -1.7638894,-0.23687 c -3.565874,-0.47884 -4.501066,-0.36334 -6.783987,0.83789 -1.36685098,0.71922 -2.16716998,1.35657 -2.11666598,1.68566 0.05546,0.36139 -0.178365,0.50112 -0.73747502,0.44071 -0.450275,-0.0486 -1.561525,0.34823 -2.469444,0.88195 l -1.65076,0.97038 2.645833,0.20102 c 1.455208,0.11057 2.91881602,0.22963 3.25246302,0.26459 0.333646,0.035 1.12739598,-0.22948 1.76388898,-0.58764 z m -9.036223,-1.41111 c 1.318496,-0.74809 2.446369,-1.50748 2.506391,-1.68754 0.06002,-0.18005 -0.341461,-0.59355 -0.892175,-0.91886 -0.995243,-0.58791 -1.024633,-0.57823 -4.8540736,1.59764 l -3.852771,2.1891 1.5875,0.21781 c 2.195047,0.30117 2.7653186,0.15634 5.5051286,-1.39817 z m 1.237812,0.93901 c 1.336852,-0.75137 1.768987,-1.34617 0.978006,-1.34617 -0.576689,0 -3.134836,1.49241 -3.134836,1.82885 0,0.48531 0.721981,0.32373 2.15683,-0.4827 z m 154.3001104,0.41772 c 0.28337,-0.45852 -2.28912,-0.45852 -2.99861,0 -0.38324,0.24766 -0.0728,0.34346 1.1257,0.34737 0.91019,0.003 1.75299,-0.15335 1.87291,-0.34737 z m -159.873448,-2.35475 c 4.7371316,-2.62661 4.7747936,-2.8681 0.454184,-2.91212 -2.354305,-0.024 -2.574375,0.052 -6.790972,2.34537 -2.396797,1.30359 -4.357816,2.49421 -4.357816,2.64583 0,0.15162 1.450751,0.27567 3.223886,0.27567 h 3.223884 z m 84.453854,1.81704 c 1.583534,-0.66164 7.599101,-4.42955 7.39606,-4.63259 -0.08098,-0.081 -0.9675,0.17609 -1.970049,0.57126 -2.083495,0.82123 -2.149471,0.83336 -2.149471,0.3951 0,-0.17786 0.436562,-0.48282 0.970139,-0.6777 0.819238,-0.29921 0.589851,-0.35866 -1.47471,-0.38218 -2.289267,-0.0261 -2.586726,0.0646 -4.674306,1.4247 -2.322851,1.51339 -2.71672,1.93216 -1.523901,1.62023 0.729802,-0.19084 0.974517,0.24713 0.352778,0.63139 -0.756211,0.46736 -0.122425,1.05329 1.687026,1.55965 0.05474,0.0153 0.678635,-0.21412 1.386434,-0.50986 z m -100.131718,-2.19632 4.42829,-2.38125 -3.40054,-0.30543 c -3.3693,-0.30262 -3.4178,-0.29581 -5.27877,0.74147 -1.03302,0.5758 -2.98947,1.66574 -4.34766,2.4221 l -2.46945,1.37519 2.46945,0.20229 c 1.35819,0.11126 2.85216,0.23032 3.31992,0.26458 0.47354,0.0347 2.81313,-0.99309 5.27876,-2.31895 z m 7.639833,0.17639 c 2.221375,-1.21268 4.040516,-2.32393 4.042534,-2.46945 0.0021,-0.14552 -1.357905,-0.26458 -3.022053,-0.26458 h -3.025722 l -3.850732,2.14596 c -2.11789,1.18028 -3.94069,2.29153 -4.05065,2.46945 -0.11529,0.18655 1.08434,0.32348 2.83392,0.32348 h 3.03384 z m 84.896185,1.45382 1.054735,-0.75103 -1.705832,-1.738 c -1.50651,-1.53492 -1.835016,-1.71413 -2.811428,-1.53372 -1.519865,0.28084 -1.831996,-0.61096 -0.633356,-1.8096 1.297475,-1.29748 0.79344,-1.41859 -0.971282,-0.23339 -2.170253,1.45756 -2.115668,1.95795 0.329248,3.01828 1.72811,0.74946 2.165639,1.12751 2.715087,2.34597 0.360253,0.79889 0.725449,1.45253 0.811548,1.45253 0.0861,0 0.631179,-0.33797 1.21128,-0.75104 z m 18.554854,0.20187 c 1.174545,-0.82268 0.944922,-1.34964 -0.274281,-0.62944 -0.582084,0.34385 -1.058334,0.7497 -1.058334,0.90189 0,0.4269 0.471897,0.33042 1.332615,-0.27245 z m -119.641872,-1.97607 c 2.20509,-1.195 4.00926,-2.30625 4.00926,-2.46945 0,-0.16319 -1.13123,-0.29672 -2.51384,-0.29672 -2.40207,0 -2.69396,0.0961 -6.56434,2.16059 -4.43916,2.36792 -4.58422,2.76362 -1.0165,2.7729 1.87915,0.005 2.45656,-0.20075 6.08542,-2.16732 z m 118.990168,1.02725 c 1.487703,-0.98445 1.748793,-1.3316 1.857308,-2.46945 l 0.126259,-1.32397 h -1.383707 c -1.077673,0 -2.152156,0.47493 -4.858142,2.14732 -1.910937,1.18102 -3.564018,2.29227 -3.673517,2.46944 -0.114505,0.18528 1.160364,0.32213 3.000834,0.32213 3.018959,0 3.297808,-0.0648 4.930965,-1.14547 z m -125.564238,-1.41838 4.05694,-2.19865 -2.64583,-0.11239 c -2.60279,-0.11056 -2.71327,-0.0792 -6.79097,1.92854 -2.27983,1.12252 -4.14514,2.16528 -4.14514,2.31725 0,0.15198 1.23031,0.27353 2.73403,0.27011 2.67905,-0.006 2.8156,-0.0504 6.79097,-2.20486 z m 137.874157,-0.12983 c 1.877335,-1.28749 3.572087,-2.49656 3.766115,-2.68681 0.23078,-0.22629 -0.824689,-0.28837 -3.0521,-0.17952 l -3.404876,0.1664 -3.738873,2.39756 c -2.056381,1.31866 -3.738873,2.45285 -3.738873,2.52042 0,0.0676 1.519936,0.12285 3.377635,0.12285 h 3.377639 z m 10.288635,-0.42147 c 1.84539,-1.26117 3.51401,-2.43983 3.70803,-2.61924 0.21701,-0.20064 -1.36647,-0.28005 -4.11423,-0.20632 l -4.46701,0.11988 -3.575477,2.44211 c -1.966514,1.34316 -3.658595,2.57659 -3.760177,2.74096 -0.101582,0.16437 1.848922,0.19013 4.334457,0.0573 l 4.519157,-0.2416 z m 10.00014,-0.33985 c 1.90844,-1.29519 3.545,-2.47641 3.6368,-2.62494 0.0918,-0.14853 -1.68618,-0.27006 -3.95106,-0.27006 h -4.11797 l -3.82807,2.55764 c -2.10545,1.4067 -3.83361,2.6971 -3.84036,2.86755 -0.007,0.17451 1.87589,0.20391 4.30925,0.0673 l 4.32153,-0.24261 z m 7.1462,2.03144 c 0.88368,-0.33598 7.99443,-5.30713 7.82857,-5.47299 -0.0631,-0.0632 -2.24131,-0.0203 -4.84036,0.0953 l -4.72554,0.21016 -3.38105,2.28366 c -5.15046,3.47878 -5.14861,3.29276 -0.032,3.22482 2.42407,-0.0322 4.74173,-0.18564 5.15036,-0.341 z m 14.3043,-2.69968 c 2.12922,-1.49166 3.96688,-2.86677 4.0837,-3.05578 0.13653,-0.22092 -1.4583,-0.25911 -4.46499,-0.10694 l -4.67738,0.23673 -3.69089,2.5353 c -2.02998,1.39442 -3.7698,2.66299 -3.86626,2.81906 -0.0965,0.15607 1.8316,0.28376 4.28458,0.28376 h 4.45994 z m 3.30184,2.39491 2.82222,-0.0555 4.23333,-3.02636 4.23334,-3.02637 -4.47113,0.1757 -4.47113,0.1757 -4.07278,2.77246 c -2.24002,1.52485 -4.0777,2.87744 -4.08373,3.00575 -0.006,0.12831 0.66373,0.18849 1.48835,0.13373 0.82462,-0.0547 2.76931,-0.12454 4.32153,-0.15508 z M 0.29659362,65.753722 c 1.23583998,-0.7315 1.46293698,-0.98968 0.96053198,-1.09202 -0.82557398,-0.16818 -3.046204,0.99897 -3.046204,1.60106 0,0.63559 0.258392,0.57253 2.08567202,-0.50904 z M 90.335001,64.697072 c 0.794787,-0.52596 1.278664,-1.01176 1.075284,-1.07956 -0.334712,-0.11157 -3.241033,1.59791 -3.241033,1.90635 0,0.3624 0.871506,0.0297 2.165749,-0.82679 z m -94.0643574,0.25075 c 0.124146,-0.20088 -0.179666,-0.35278 -0.705555,-0.35278 -0.525889,0 -0.829702,0.1519 -0.705556,0.35278 0.119917,0.19402 0.437417,0.35277 0.705556,0.35277 0.268139,0 0.585639,-0.15875 0.705555,-0.35277 z m 2.469445,0 c 0.119916,-0.19403 -0.118209,-0.35278 -0.529167,-0.35278 -0.410958,0 -0.649083,0.15875 -0.529166,0.35278 0.119916,0.19402 0.358041,0.35277 0.529166,0.35277 0.171126,0 0.409251,-0.15875 0.529167,-0.35277 z M 58.42524,63.624902 c 0.120971,-0.33955 0.631927,-0.96884 1.135454,-1.39843 l 0.915504,-0.78106 -2.771772,-0.0127 c -2.385603,-0.0109 -2.741937,0.0651 -2.557638,0.54534 0.117774,0.30691 0.214132,0.75251 0.214132,0.99023 0,0.41322 1.439806,1.15736 2.39232,1.23644 0.248627,0.0206 0.551025,-0.24028 0.672,-0.57983 z m 30.978734,0.26458 c 0.119917,-0.19403 -0.108839,-0.35278 -0.508345,-0.35278 -0.399507,0 -0.726377,0.15875 -0.726377,0.35278 0,0.19403 0.228755,0.35278 0.508346,0.35278 0.27959,0 0.60646,-0.15875 0.726376,-0.35278 z m -24.694443,-1.34439 c 1.400722,-0.94168 1.404147,-0.94947 0.465275,-1.05795 -0.972894,-0.1124 -3.816664,1.47814 -3.816664,2.13469 0,0.54496 1.798807,-0.0329 3.351389,-1.07674 z m -10.054166,0.15153 c 0,-0.074 -2.055696,-1.52823 -4.568215,-3.23163 -3.922712,-2.65948 -4.520304,-3.18663 -4.229163,-3.73063 0.186478,-0.34844 1.846153,-2.61493 3.688164,-5.03665 1.842015,-2.42172 3.192205,-4.50011 3.000425,-4.61864 -0.279965,-0.17302 -7.691512,9.37011 -8.040864,10.35345 -0.124834,0.35138 6.567364,5.19832 8.090827,5.85992 1.145071,0.49728 2.058826,0.67666 2.058826,0.40418 z m -23.283333,-0.80461 c 0,-0.12848 -0.412087,-0.93677 -0.915747,-1.7962 -0.74543,-1.27198 -1.057088,-1.52468 -1.675695,-1.35873 -0.417971,0.11214 -1.791822,0.2111 -3.053002,0.21992 -2.093585,0.0146 -2.233486,0.0611 -1.608268,0.53398 0.438383,0.33158 1.644297,0.54195 3.351389,0.58465 2.505381,0.0627 2.542109,0.0745 0.607494,0.19491 -1.672657,0.10414 -2.020256,0.22946 -1.852084,0.6677 0.113863,0.29673 0.207024,0.68527 0.207024,0.86343 0,0.17816 1.11125,0.32392 2.469445,0.32392 1.358194,0 2.469444,-0.10511 2.469444,-0.23358 z m -5.644444,-0.39081 c 0,-0.14939 -1.150938,-0.97712 -2.557639,-1.8394 -1.406701,-0.86228 -3.728946,-2.32755 -5.160542,-3.25616 -1.431594,-0.92861 -2.741281,-1.68838 -2.910417,-1.68838 -0.873686,0 0.02244,0.75467 3.13207,2.63766 1.891771,1.14553 4.231213,2.60818 5.198763,3.25034 1.785475,1.18501 2.297765,1.38476 2.297765,0.89594 z m 7.349535,10e-4 c -0.06467,-0.14859 -0.831966,-1.57719 -1.705091,-3.17452 -1.052375,-1.92525 -1.795603,-2.90435 -2.204861,-2.90457 -0.339549,-2e-4 -0.617361,0.12534 -0.617361,0.27898 0,0.70852 3.625423,6.07067 4.104463,6.07067 0.297244,0 0.487529,-0.12169 0.42285,-0.27042 z m 4.203937,-0.63407 c 2.285065,-0.62126 2.487072,-0.78872 1.791098,-1.48469 -0.316501,-0.3165 -0.316501,-0.62724 0,-1.32188 0.22757,-0.49946 0.413763,-1.02553 0.413763,-1.16904 0,-0.2284 -6.982118,1.28457 -7.387336,1.60078 -0.08546,0.0667 0.07329,0.33792 0.352778,0.60273 0.429909,0.40733 0.90206,0.38675 3.065808,-0.13362 1.406701,-0.3383 2.557639,-0.49007 2.557639,-0.33726 0,0.30295 -0.314957,0.40859 -3.086806,1.03532 -1.018646,0.23033 -1.852083,0.49275 -1.852083,0.58316 0,0.66164 0.843559,1.53599 1.344401,1.39349 0.327734,-0.0932 1.588064,-0.43929 2.800738,-0.76899 z m 41.542971,-4.78781 c 3.674724,-2.39892 10.056418,-6.58417 14.181547,-9.30056 4.125126,-2.71639 9.321202,-6.12334 11.546832,-7.57099 2.22564,-1.44766 3.97996,-2.69876 3.89849,-2.78022 -0.0815,-0.0815 -3.36847,1.96039 -7.30446,4.53746 -3.935998,2.57707 -9.850427,6.44754 -13.143184,8.60106 -10.384885,6.79186 -16.962878,11.22148 -16.402134,11.0452 0.297878,-0.0937 3.548186,-2.13303 7.222909,-4.53195 z m -31.898934,3.22334 c -1.105697,-0.94542 -1.794732,-1.09136 -1.794732,-0.38012 0,0.23385 2.205676,1.31983 2.822222,1.38955 0.09701,0.011 -0.365358,-0.44328 -1.02749,-1.00943 z m 7.37525,-0.0885 c 0.964399,-0.63059 1.756304,-1.26559 1.759789,-1.41111 0.0035,-0.14552 -1.58116,-0.26459 -3.521438,-0.26459 -1.940278,0 -3.524864,0.11907 -3.521301,0.26459 0.005,0.20613 3.026968,2.43495 3.437202,2.5351 0.05076,0.0124 0.881349,-0.4934 1.845748,-1.12399 z m 18.066066,-0.17639 1.468145,-0.97014 -7.354778,-0.26398 -7.354778,-0.26397 -1.529263,0.89621 c -0.841096,0.49291 -1.529263,1.04826 -1.529263,1.23411 0,0.20464 2.924728,0.33791 7.415896,0.33791 h 7.415897 z m -29.680706,-0.27714 c 1.720663,-0.87193 2.022658,-1.57494 0.67655,-1.57494 -1.113388,0 -2.365202,0.73459 -2.771539,1.6264 -0.495532,1.08758 -0.135339,1.07873 2.094989,-0.0515 z m -0.906731,-3.33883 c 1.070395,-2.13431 1.794073,-3.88056 1.608173,-3.88056 -0.371524,0 -3.891922,6.61161 -3.897658,7.32014 -0.0076,0.93593 0.408806,0.31039 2.289485,-3.43958 z m -12.876388,2.27702 c 0,-0.29986 -0.389319,-0.93452 -0.865156,-1.41036 -1.078604,-1.07861 -1.746225,-3.26918 -1.197762,-3.93004 0.211981,-0.25542 1.070988,-0.4644 1.908906,-0.4644 0.837914,0 1.630792,-0.17364 1.761952,-0.38585 0.131155,-0.21222 -0.283232,-3.23514 -0.92086,-6.7176 -0.845682,-4.61876 -1.280079,-6.28541 -1.605657,-6.16048 -0.656985,0.25211 -7.085841,5.04029 -7.357484,5.47982 -0.127737,0.20667 -0.381628,0.37578 -0.564204,0.37578 -0.587943,0 -0.346763,-1.19396 0.56249,-2.78457 0.487274,-0.85242 0.813498,-1.6223 0.724944,-1.71086 -0.243935,-0.24393 -2.347853,0.51667 -5.954211,2.15255 -10.4345494,4.73323 -14.1490454,7.7975 -12.0258354,9.92071 0.749537,0.74954 6.8240284,3.79797 6.8747044,3.45001 0.02148,-0.14747 0.01468,-0.59043 -0.0151,-0.98437 -0.09412,-1.24515 3.049626,-3.05628 4.10361,-2.36411 0.232869,0.15293 0.562187,0.65323 0.731816,1.11178 0.187332,0.50642 1.599999,1.64512 3.598295,2.90046 l 3.289882,2.06673 h 3.474829 c 2.898986,0 3.47484,-0.0904 3.47484,-0.5452 z m 8.540866,-1.28957 c 2.682331,-0.69466 2.734398,-0.72988 3.756741,-2.54137 0.850258,-1.50658 1.00482,-2.11989 0.859391,-3.41014 -0.171171,-1.51861 -0.133978,-1.59385 1.072088,-2.16899 1.126176,-0.53703 1.354134,-0.54356 2.311104,-0.0662 1.847543,0.92168 1.749428,2.96587 -0.142353,2.96587 -0.590211,0 -0.995183,0.39069 -1.534156,1.48006 -0.402749,0.81403 -0.687677,1.52465 -0.633173,1.57915 0.0545,0.0545 0.804002,-0.2694 1.665545,-0.7198 1.166774,-0.60996 2.306715,-1.80047 4.467786,-4.66596 1.595737,-2.11588 2.910413,-4.16456 2.921501,-4.55261 0.02618,-0.91565 1.607403,-2.06297 2.515781,-1.82542 0.387925,0.10144 1.162625,0.025 1.721552,-0.16982 1.974586,-0.68834 2.175732,-4.25788 0.296605,-5.26355 -1.203593,-0.64415 -8.861372,-1.12122 -15.166593,-0.94487 -3.421511,0.0957 -6.399953,0.28463 -6.618764,0.41986 -0.269497,0.16656 0.01626,0.98636 0.885846,2.54131 0.994142,1.77769 1.18836,2.38908 0.861081,2.71063 -0.505569,0.49671 -1.110773,-0.18486 -2.577274,-2.90248 -0.53352,-0.98868 -1.108061,-1.79761 -1.276759,-1.79761 -0.516386,0 -0.74373,2.40288 -0.751,7.9375 -0.0096,7.29249 -0.221728,8.8225 -1.290888,9.30964 -0.831113,0.37868 -0.836242,0.40853 -0.263832,1.5355 1.133295,2.23126 0.591135,2.18822 6.919771,0.54926 z m -20.888088,0.63489 c 0,-0.39133 -2.632481,-1.62165 -3.459748,-1.61694 -0.888414,0.005 -2.425492,0.66455 -1.65553,0.71032 0.194028,0.0115 1.146528,0.24137 2.116667,0.51076 1.78242,0.49493 2.998611,0.65549 2.998611,0.39586 z m 42.495341,-0.82603 c 0.881035,-0.53216 1.60188,-1.08778 1.60188,-1.23472 0,-0.33207 -11.842799,-0.28807 -13.052778,0.0485 -0.55632,0.15475 -0.881944,0.49996 -0.881944,0.93498 0,0.84627 1.445161,1.08858 6.952982,1.16583 3.542051,0.0497 3.878018,-0.007 5.37986,-0.91459 z m 17.703838,-0.002 c 0.844617,-0.53358 1.535952,-1.08921 1.536298,-1.23473 3.49e-4,-0.14552 -3.356158,-0.26458 -7.458904,-0.26458 h -7.459538 l -1.535663,0.97014 c -0.844617,0.53357 -1.535952,1.0892 -1.536298,1.23472 -3.49e-4,0.14552 3.356159,0.26458 7.458904,0.26458 h 7.459538 z m -33.586005,0.2102 c 0.491479,-0.22392 1.153703,-0.80412 1.471612,-1.28931 0.549441,-0.83855 0.545327,-0.8688 -0.08325,-0.61199 -0.363693,0.14859 -0.899386,0.29222 -1.190428,0.31917 -0.61371,0.0568 -1.383608,0.90836 -1.399893,1.54831 -0.01379,0.54204 0.08072,0.5447 1.201957,0.0338 z m -30.331325,-1.83205 c 0.41245,-0.30159 0.512385,-0.56039 0.273421,-0.70808 -0.481337,-0.29758 -2.199714,0.34446 -2.199714,0.82179 0,0.51549 1.159351,0.44699 1.926293,-0.11381 z m 15.241344,-0.73569 c -0.116688,-0.30418 -0.392878,-0.55298 -0.613752,-0.55298 -0.221266,0 -0.305442,0.25057 -0.187463,0.55802 0.117775,0.30691 0.214133,0.73553 0.214133,0.9525 0,0.28776 0.108108,0.28637 0.399619,-0.005 0.219791,-0.21979 0.304151,-0.64842 0.187463,-0.9525 z m -13.292483,0.24077 c -0.0028,-0.14552 -0.143972,-0.48336 -0.313337,-0.75075 -0.391502,-0.61811 -1.127979,-0.1935 -0.862835,0.49747 0.201821,0.52593 1.186064,0.73788 1.176172,0.25328 z m 15.328268,-0.0795 c 1.326487,-0.50433 1.16356,-1.20699 -0.215893,-0.9311 -1.323333,0.26466 -1.497298,0.39643 -1.186758,0.89889 0.283382,0.45853 0.281463,0.45848 1.402651,0.0322 z m 52.472253,-1.63905 c 0.749155,-0.51917 1.294063,-1.01198 1.210906,-1.09514 -0.08316,-0.0832 -3.435565,-0.14747 -7.449795,-0.14292 l -7.298595,0.008 -1.640624,1.07312 -1.640625,1.07312 2.533865,0.004 c 2.185204,0.004 2.563258,-0.0884 2.747458,-0.66882 0.41626,-1.31151 2.420253,-1.33166 2.833864,-0.0285 0.183709,0.57881 0.620426,0.68792 3.10485,0.7757 3.819302,0.13495 4.012028,0.10056 5.598696,-0.999 z m -28.989566,0.408 c 0,-0.66386 1.195151,-1.30786 1.914723,-1.03173 0.305096,0.11708 0.554722,0.51338 0.554722,0.88068 0,0.61311 0.305445,0.66781 3.729541,0.66781 3.387771,0 3.874153,-0.0847 5.307602,-0.9248 0.867936,-0.50865 1.487071,-1.0158 1.375858,-1.12701 -0.11121,-0.11121 -2.921282,-0.16753 -6.244607,-0.12516 -5.455522,0.0696 -6.174116,0.15108 -7.398456,0.83919 -1.629586,0.91588 -1.723478,1.33778 -0.297716,1.33778 0.694256,0 1.058333,-0.17777 1.058333,-0.51676 z m -8.819444,-2.65824 c 0,-0.19403 -0.32687,-0.35278 -0.726376,-0.35278 -0.399507,0 -0.628262,0.15875 -0.508346,0.35278 0.119916,0.19403 0.446786,0.35278 0.726376,0.35278 0.279591,0 0.508346,-0.15875 0.508346,-0.35278 z m 1.411111,0 c 0,-0.19403 -0.15875,-0.35278 -0.352778,-0.35278 -0.194027,0 -0.352777,0.15875 -0.352777,0.35278 0,0.19403 0.15875,0.35278 0.352777,0.35278 0.194028,0 0.352778,-0.15875 0.352778,-0.35278 z m 23.503483,-0.61736 1.720127,-0.97014 -6.304816,-0.0965 c -6.214049,-0.0951 -6.327051,-0.0835 -7.849305,0.80862 -0.849468,0.49782 -1.544489,0.97782 -1.544489,1.06665 0,0.0888 2.758129,0.16152 6.129178,0.16152 6.03419,0 6.155835,-0.015 7.849305,-0.97014 z m 17.248653,0 1.404807,-0.97014 -7.493504,-0.0952 -7.493501,-0.0952 -1.414138,0.93583 c -0.777773,0.51471 -1.414134,0.99411 -1.414134,1.06534 0,0.0712 3.376273,0.12951 7.502831,0.12951 h 7.502828 z m -43.780415,-0.31448 c 0.185797,-0.48418 0.134175,-0.506 -0.315034,-0.1332 -0.612155,0.50805 -0.675866,0.71226 -0.222208,0.71226 0.17327,0 0.415029,-0.26058 0.537242,-0.57906 z m 31.02414,-2.50651 1.402623,-0.97137 -6.077408,-0.0966 c -6.050505,-0.0962 -6.085007,-0.0923 -7.794596,0.86866 -0.944453,0.53091 -1.631897,1.10329 -1.527651,1.27196 0.104246,0.16868 2.980633,0.2149 6.391973,0.10271 6.038052,-0.19856 6.239608,-0.22971 7.605059,-1.17534 z m -42.950692,-9.11286 c -0.17931,-0.46727 -1.978502,-0.2453 -1.978502,0.24409 0,0.71699 1.488567,8.99994 1.704577,9.4849 0.25903,0.58154 0.530503,-9.06036 0.273925,-9.72899 z m 60.07939,9.11163 1.618495,-0.97014 -7.509866,-0.0952 -7.509863,-0.0952 -1.574165,0.92252 c -0.865787,0.50738 -1.574161,0.98681 -1.574161,1.06539 0,0.0786 3.359488,0.14287 7.465532,0.14287 h 7.465533 z m -37.716226,-2.0493 c 0,-0.27959 -0.238125,-0.50834 -0.529166,-0.50834 -0.593485,0 -0.617531,0.0648 -0.315814,0.85106 0.247826,0.64583 0.84498,0.40362 0.84498,-0.34272 z m 24.689145,-0.5386 c 0.973053,-0.59873 1.769187,-1.17892 1.769187,-1.28932 0,-0.1104 -2.847893,-0.10705 -6.328653,0.007 -5.753928,0.18925 -6.458489,0.28231 -7.758394,1.02473 -0.786356,0.44911 -1.430962,0.93563 -1.432458,1.08115 -0.0014,0.14552 2.693649,0.26458 5.989207,0.26458 h 5.99192 l 1.769191,-1.08859 z m 17.644187,-0.45944 1.5875,-1.0978 -1.058333,-0.12236 c -0.582084,-0.0673 -3.995208,-0.0631 -7.584722,0.009 -6.496255,0.13121 -6.533311,0.13647 -8.025695,1.13938 -0.824618,0.55416 -1.499305,1.12338 -1.499305,1.26494 0,0.14155 3.373437,0.17791 7.496527,0.0808 l 7.496528,-0.1766 z m -40.109848,0.4554 c -0.353878,-0.35387 -1.933892,-7e-4 -1.698769,0.37987 0.0902,0.14595 0.575783,0.18665 1.079073,0.0904 0.503287,-0.0962 0.782151,-0.30785 0.619696,-0.47031 z m 1.192502,-0.7374 c -0.112614,-0.28143 -0.196208,-0.19783 -0.213134,0.21313 -0.01531,0.37189 0.06806,0.58025 0.185286,0.46302 0.117224,-0.11722 0.129755,-0.42149 0.02783,-0.67615 z m 68.903093,-0.19844 c -1.9e-4,-0.14552 -0.75426,-0.7102 -1.67569,-1.25484 -0.92144,-0.54464 -2.6053,-1.56482 -3.74193,-2.26705 -1.76316,-1.08932 -2.73906,-1.38975 -6.64654,-2.04613 l -4.57996,-0.76935 -2.70206,1.75857 c -1.48614,0.96722 -3.5728,2.33359 -4.63703,3.03639 l -1.93496,1.27783 6.16829,0.18904 c 10.38693,0.31835 19.75026,0.35416 19.74988,0.0755 z m -42.864079,-2.08384 c 0.873498,-0.55185 1.588466,-1.11495 1.588812,-1.25133 3.49e-4,-0.13638 -0.753431,-0.1807 -1.675063,-0.0985 -0.921632,0.0822 -3.797533,0.22918 -6.390887,0.3266 -4.250439,0.15966 -4.867634,0.26646 -6.261805,1.0835 -0.850639,0.4985 -1.546613,1.00288 -1.546613,1.12084 0,0.11796 2.856907,0.12622 6.348687,0.0183 6.213288,-0.19194 6.382558,-0.21752 7.936869,-1.19948 z m 17.477199,-0.41765 c 1.14163,-0.67536 2.018,-1.32155 1.94748,-1.43599 -0.0705,-0.11443 -3.555042,-0.0977 -7.743417,0.0371 l -7.615224,0.24517 -1.591077,1.09469 c -0.87509,0.60208 -1.591073,1.1783 -1.591073,1.2805 0,0.10219 3.266468,0.14545 7.258815,0.0961 l 7.258816,-0.0897 z m -76.857892,-0.64039 c 0.74271,-0.67215 0.855691,-1.2387 0.196578,-0.98578 -0.505075,0.19382 -1.453042,1.56962 -1.08151,1.56962 0.131885,0 0.530105,-0.26273 0.884932,-0.58384 z m 64.056942,-1.99569 c 1.018646,-0.60352 1.852083,-1.21671 1.852083,-1.36262 0,-0.14592 -1.865312,-0.18811 -4.145139,-0.0937 -7.948048,0.32895 -8.354567,0.3914 -10.28707,1.58048 -0.987562,0.60766 -1.795568,1.18209 -1.795568,1.27651 0,0.0944 2.817812,0.0648 6.261805,-0.0658 6.185478,-0.23459 6.28438,-0.25086 8.113889,-1.33482 z m 9.260416,0.63029 6.879164,-0.22318 1.6757,-1.06723 c 0.92163,-0.58698 1.67569,-1.19396 1.67569,-1.34886 0,-0.15489 -1.07156,-0.22337 -2.38125,-0.15217 -1.30969,0.0712 -4.7257,0.21516 -7.591151,0.31994 -5.141454,0.18799 -5.232912,0.20554 -6.961022,1.33548 -1.886148,1.23327 -2.237895,1.78567 -0.970047,1.52339 0.436563,-0.0903 3.889375,-0.26463 7.672916,-0.38737 z m -70.053543,-1.90297 c 0.839026,-0.87575 0.938054,-1.17621 0.661317,-2.00642 -0.179013,-0.53704 -0.474309,-1.024 -0.656209,-1.08213 -0.181902,-0.0581 -0.852889,0.84476 -1.491085,2.00643 l -1.160357,2.11211 h 0.829772 c 0.456389,0 1.273814,-0.46348 1.816562,-1.02999 z m -1.354187,-3.64432 c 0.714061,-1.21267 1.284337,-2.60173 1.26728,-3.0868 -0.02603,-0.74068 -2.535523,-13.94031 -3.971674,-20.8906001 l -0.416775,-2.016989 -2.065288,0.07671 c -1.646481,0.06115 -2.03424,0.184016 -1.912183,0.605874 0.0842,0.291042 0.328122,1.561045 0.542033,2.8222251 0.213914,1.26118 0.957054,5.28223 1.651427,8.93567 1.054805,5.54984 1.397483,6.76858 2.083036,7.40833 0.941691,0.87878 1.594594,3.76433 0.851739,3.76433 -0.328136,0 -0.382372,0.45941 -0.208756,1.76819 0.231179,1.74272 0.520831,2.81792 0.759125,2.81792 0.06696,0 0.705979,-0.99218 1.420036,-2.20486 z m 5.51016,1.56855 c 0.148667,-0.14867 -0.0278,-1.05851 -0.392127,-2.02186 -0.562091,-1.48624 -0.815111,-1.76547 -1.670396,-1.84345 -2.041345,-0.18613 -2.09018,0.12511 -0.643868,4.10366 0.181507,0.4993 2.14134,0.3267 2.706391,-0.23835 z m -9.889232,-2.0642 c 0.80385,-0.72747 0.836231,-2.50083 0.06129,-3.35713 -1.296042,-1.43211 -4.002268,-0.27698 -4.002268,1.70834 0,1.96463 2.456396,2.99232 3.940973,1.64879 z m 1.737405,-4.60948 c -0.30922,-0.53123 -0.366903,-0.46063 -0.375983,0.46022 -0.0059,0.59826 0.108334,1.20864 0.253855,1.35641 0.42116,0.42768 0.525456,-1.12372 0.122128,-1.81663 z m -2.916876,0.13464 c 1.47749,0.0329 1.51927,0.004 1.29424,-0.89253 -0.33909,-1.35105 -0.428188,-1.36596 -2.211779,-0.37019 -1.608057,0.89777 -2.680621,2.19204 -1.274738,1.53824 0.366025,-0.17022 1.352546,-0.2942 2.192277,-0.27552 z m 7.713846,-0.93854 c -0.360687,-0.95556 -0.957601,-1.45666 -0.945532,-0.79375 0.01552,0.85252 0.494573,1.85209 0.887631,1.85209 0.361784,0 0.373884,-0.2212 0.0579,-1.05834 z m 3.988541,-0.35277 c 0,-0.19403 -0.714375,-0.35278 -1.5875,-0.35278 -0.873125,0 -1.5875,0.15875 -1.5875,0.35278 0,0.19402 0.714375,0.35277 1.5875,0.35277 0.873125,0 1.5875,-0.15875 1.5875,-0.35277 z m -12.7,-20.9902801 c 0,-0.291042 -0.233143,-0.529167 -0.518096,-0.529167 -0.315592,0 -0.438725,0.20683 -0.315034,0.529167 0.111686,0.291041 0.344826,0.529166 0.518096,0.529166 0.173267,0 0.315034,-0.238125 0.315034,-0.529166 z m 4.327282,-0.05873 c 0.570226,-0.351018 -0.187294,-0.823218 -1.320638,-0.823218 -1.561712,0 -2.301088,0.308381 -2.301088,0.959743 0,0.434061 0.307153,0.48551 1.675694,0.280684 0.921632,-0.137936 1.797346,-0.325681 1.946032,-0.417209 z m -1.555577,-1.916804 c 1.95073,-0.680025 1.920141,-3.657353 -0.04467,-4.348339 -0.773101,-0.271886 -1.156987,-0.196187 -1.933991,0.38137 -1.378101,1.024365 -1.482778,2.627627 -0.235609,3.608652 0.521857,0.410489 0.983106,0.746348 1.025002,0.746348 0.04189,0 0.577067,-0.174615 1.189271,-0.388031 z m -3.634987,-1.904676 c -0.01563,-1.62396 -0.121821,-1.939989 -0.652008,-1.940278 -0.536391,-2.93e-4 -0.599182,0.202174 -0.410167,1.322571 0.538004,3.189093 1.089998,3.510104 1.062175,0.617707 z m -0.02381,-5.109919 c 0.436365,-0.482177 0.891882,-0.634961 1.464557,-0.491233 0.754077,0.189262 0.814419,0.115087 0.650343,-0.799454 -0.762244,-4.248647 -4.096089,-20.7509069 -4.216496,-20.8713159 -0.08327,-0.08327 -0.913317,-0.01143 -1.844544,0.159659 -1.614558,0.296624 -1.687636,0.359942 -1.574585,1.364267 0.116406,1.034107 3.410144,18.9885789 3.768817,20.5441779 0.226053,0.980401 0.91616,1.01739 1.751908,0.0939 z m -5.11013,-23.6129619 c 0,-0.610413 -0.428208,-1.439964 -0.743299,-1.439964 -0.365576,0 -0.427277,1.181276 -0.07985,1.528703 0.340558,0.34056 0.823147,0.288534 0.823147,-0.08874 z m 0.91313,-1.349983 c -0.385374,-0.385374 -0.649633,0.227491 -0.372949,0.864943 0.262353,0.604438 0.281372,0.603886 0.427545,-0.0124 0.08414,-0.354735 0.05957,-0.738381 -0.0546,-0.852547 z m 1.556315,0.439186 c 0,-0.48507 -0.15875,-0.881945 -0.352778,-0.881945 -0.194028,0 -0.352778,0.396875 -0.352778,0.881945 0,0.485069 0.15875,0.881944 0.352778,0.881944 0.194028,0 0.352778,-0.396875 0.352778,-0.881944 z"
       style="fill:#000000;stroke-width:0.35277778" />
  </g>
</svg>
